<?xml version="1.0" encoding="utf-8"?>
<!-- Generator: Adobe Illustrator 16.2.0, SVG Export Plug-In . SVG Version: 6.00 Build 0)  -->
<!DOCTYPE svg PUBLIC "-//W3C//DTD SVG 1.1//EN" "http://www.w3.org/Graphics/SVG/1.1/DTD/svg11.dtd">
<svg version="1.1" xmlns="http://www.w3.org/2000/svg" xmlns:xlink="http://www.w3.org/1999/xlink" x="0px" y="0px" width="215px"
	 height="83px" viewBox="0 0 215 83" enable-background="new 0 0 215 83" xml:space="preserve">
<g>
	<g>
		<g>
			<path fill="#005EA3" d="M44.055,36.352h8.643c1.014-0.021,2.491-0.047,3.668,0.112c2.714,0.367,5.476,1.567,5.476,4.853
				c0,2.757-1.63,4.051-3.591,4.468v0.168c2.837,0.501,4.467,2.005,4.467,5.01c0,4.907-4.688,6.261-8.48,6.441
				c-0.929,0.028-2.117,0.03-2.917,0.03h-7.265V36.352z M50.108,53.427h2.463c2.088,0,4.133-0.628,4.133-2.633
				c0-1.878-1.545-2.545-4.424-2.545h-2.172V53.427z M50.232,44.531h1.838c2.505,0,4.009-0.5,4.009-2.127
				c0-1.294-0.92-2.046-3.382-2.046h-2.465V44.531z"/>
			<path fill="#005EA3" d="M14.111,57.842C4.969,57.842,0,51.245,0,42.979c0-8.35,5.846-15.196,15.446-15.196
				c2.547,0,4.76,0.334,6.679,1.336v5.387c-2.547-1.503-4.591-1.795-6.469-1.795c-6.513,0-9.061,4.801-9.061,9.854
				c0,5.633,3.175,10.101,8.474,10.101c2.34,0,4.261-0.543,6.516-1.752l1.586,4.258C19.789,57.299,16.908,57.842,14.111,57.842
				L14.111,57.842z M117.229,57.842c-6.765,0-10.229-4.967-10.229-10.896c0-6.638,4.593-11.021,10.731-11.021
				c2.711,0,4.132,0.541,5.259,1.21v4.76c-1.503-1.086-2.716-1.463-4.384-1.463c-3.465,0-5.595,2.547-5.595,6.223
				c0,3.297,1.628,6.513,5.511,6.513c1.084,0,2.547-0.418,4.092-1.212l1.419,3.88C122.281,57.007,119.358,57.842,117.229,57.842
				L117.229,57.842z M135.932,41.1v16.325h-6.012V41.1h-5.844v-4.76h18.451l-1.502,4.76H135.932z M164.819,38.805
				c0,7.348-0.288,11.188-1.627,12.94c-0.666,0.879-1.712,1.462-2.796,1.629l1.669,4.468c1.377-0.041,3.509-0.625,4.968-2.088
				c1.92-1.878,2.548-4.258,2.84-6.764c0.252-2.128,0.417-4.634,0.417-6.845V41.1h4.702v16.325h6.012V36.34h-16.185V38.805z
				 M28.515,48.529c0.126,2.841,2.798,4.596,5.592,4.596c2.048,0,3.592-0.376,5.973-1.503l1.334,3.799
				c-2.923,1.837-5.76,2.421-8.307,2.421c-7.516,0-10.604-5.344-10.604-10.896c0-5.928,3.548-11.021,9.853-11.021
				c5.762,0,9.769,4.258,9.769,10.771v1.834H28.515z M32.188,40.309c-2.424,0-3.8,2.17-3.8,4.092h7.599
				C35.862,42.394,34.734,40.309,32.188,40.309L32.188,40.309z M69.929,48.529c0.124,2.841,2.796,4.596,5.594,4.596
				c2.045,0,3.591-0.376,5.972-1.503l1.333,3.799c-2.922,1.837-5.761,2.421-8.307,2.421c-7.516,0-10.604-5.344-10.604-10.896
				c0-5.928,3.548-11.021,9.854-11.021c5.758,0,9.768,4.258,9.768,10.771v1.834H69.929z M73.603,40.309
				c-2.423,0-3.799,2.17-3.799,4.092h7.598C77.277,42.394,76.147,40.309,73.603,40.309L73.603,40.309z M154.049,55.544
				c-1.418,1.296-3.088,2.298-5.801,2.298c-4.01,0-7.015-2.672-7.015-6.848c0-4.467,3.59-6.764,8.934-6.93l3.55-0.126v-0.416
				c0-2.212-1.795-3.091-3.885-3.091c-2.127,0-3.965,0.627-5.343,1.463l-1.836-3.674c2.881-1.881,5.635-2.296,8.516-2.296
				c5.554,0,8.518,2.211,8.518,7.766v13.734h-4.675L154.049,55.544z M151.043,47.989c-2.587,0.085-3.799,0.961-3.799,2.546
				c0,1.63,1.129,2.632,3.174,2.632c1.587,0,2.715-0.503,3.255-0.961v-4.299L151.043,47.989z M91.47,56.964v8.893l-6.01,1.839V36.34
				h5.05l0.668,1.922c1.545-1.212,3.339-2.337,5.677-2.337c4.844,0,8.643,3.673,8.643,10.353c0,6.265-3.756,11.564-9.978,11.564
				C93.976,57.842,92.556,57.549,91.47,56.964L91.47,56.964z M91.47,42.686v9.979c0.669,0.461,1.504,0.836,2.591,0.836
				c4.091,0,5.426-3.715,5.426-7.306c0-4.343-1.42-5.886-3.841-5.886C94.061,40.309,92.18,41.603,91.47,42.686L91.47,42.686z"/>
			<path fill="#005EA3" d="M189.531,43.205v-7.768l-6.012,1.84V57.44h7.681c5.595,0,10.813-1.502,10.813-7.305
				c0-4.927-4.215-6.931-9.393-6.931H189.531z M189.531,53.266v-5.887h2.005c2.128,0,4.468,0.333,4.468,2.838
				c0,2.465-2.006,3.049-4.384,3.049H189.531z"/>
			<g>
				
					<linearGradient id="SVGID_1_" gradientUnits="userSpaceOnUse" x1="-929.6738" y1="157.457" x2="-898.9368" y2="157.457" gradientTransform="matrix(0.9636 -0.2672 0.2672 0.9636 1038.9128 -387.8235)">
					<stop  offset="0" style="stop-color:#E22428"/>
					<stop  offset="0.3412" style="stop-color:#E02428"/>
					<stop  offset="0.4641" style="stop-color:#D92226"/>
					<stop  offset="0.5517" style="stop-color:#CE2024"/>
					<stop  offset="0.6225" style="stop-color:#BD1D21"/>
					<stop  offset="0.6832" style="stop-color:#A7191C"/>
					<stop  offset="0.736" style="stop-color:#8C1517"/>
					<stop  offset="0.7747" style="stop-color:#731012"/>
				</linearGradient>
				<path fill="url(#SVGID_1_)" d="M191.997,3.967c-1.734,0.796-3.189,1.649-4.398,2.523c-1.267,0.919-2.435,2.063-2.759,3.324
					c-0.325,1.256,0.138,2.821,0.8,4.238c0.646,1.342,1.504,2.79,2.628,4.326c-0.043-0.439-0.029-0.857,0.056-1.246
					c0.269-1.226,1.309-2.327,2.444-3.202c0.825-0.635,1.777-1.254,2.88-1.84c1.77-0.946,3.914-1.813,6.5-2.53h0.001
					c2.59-0.719,4.878-1.082,6.882-1.182c0.041-1.245-0.018-2.383-0.154-3.415c-0.189-1.42-0.622-2.871-1.551-3.718
					c-0.298-0.27-0.663-0.496-1.069-0.679c-1.875,0.209-3.955,0.608-6.255,1.248h-0.002C195.699,2.452,193.711,3.181,191.997,3.967"
					/>
				
					<linearGradient id="SVGID_2_" gradientUnits="userSpaceOnUse" x1="-901.4048" y1="153.1299" x2="-916.9714" y2="179.58" gradientTransform="matrix(0.9636 -0.2672 0.2672 0.9636 1038.9128 -387.8235)">
					<stop  offset="0" style="stop-color:#0E7DC1"/>
					<stop  offset="0.1572" style="stop-color:#0E7BBE"/>
					<stop  offset="0.2887" style="stop-color:#0D74B3"/>
					<stop  offset="0.4111" style="stop-color:#0C69A2"/>
					<stop  offset="0.5279" style="stop-color:#0A5989"/>
					<stop  offset="0.6407" style="stop-color:#08446A"/>
					<stop  offset="0.7506" style="stop-color:#052B43"/>
					<stop  offset="0.8561" style="stop-color:#020D16"/>
					<stop  offset="0.8956" style="stop-color:#010103"/>
				</linearGradient>
				<path fill="url(#SVGID_2_)" d="M214.872,10.993c0.173-1.894,0.161-3.573,0.024-5.054c-0.142-1.559-0.573-3.138-1.497-4.048
					c-0.923-0.909-2.514-1.292-4.076-1.425c-1.483-0.129-3.172-0.112-5.067,0.101c0.406,0.183,0.771,0.409,1.069,0.679
					c0.929,0.847,1.361,2.298,1.551,3.718c0.137,1.032,0.195,2.17,0.154,3.415c-0.064,2.006-0.389,4.296-1.061,6.895v0.001
					c-0.671,2.601-1.501,4.762-2.417,6.55c1.056,0.656,2.066,1.173,3.027,1.57c1.327,0.546,2.798,0.895,3.997,0.514
					c0.387-0.12,0.761-0.325,1.124-0.587c0.755-1.726,1.449-3.721,2.045-6.027C214.346,14.97,214.7,12.876,214.872,10.993"/>
				
					<linearGradient id="SVGID_3_" gradientUnits="userSpaceOnUse" x1="-925.0581" y1="160.1396" x2="-911.6682" y2="179.2681" gradientTransform="matrix(0.9636 -0.2672 0.2672 0.9636 1038.9128 -387.8235)">
					<stop  offset="0" style="stop-color:#595959"/>
					<stop  offset="0.1078" style="stop-color:#737373"/>
					<stop  offset="0.2876" style="stop-color:#979797"/>
					<stop  offset="0.4682" style="stop-color:#B4B4B4"/>
					<stop  offset="0.6477" style="stop-color:#C8C8C8"/>
					<stop  offset="0.8256" style="stop-color:#D5D5D5"/>
					<stop  offset="1" style="stop-color:#D9D9D9"/>
				</linearGradient>
				<path fill="url(#SVGID_3_)" d="M197.332,27.308c-1.536-1.09-3.159-2.444-4.856-4.118c-1.709-1.676-3.092-3.288-4.208-4.811
					c-0.043-0.439-0.029-0.857,0.056-1.246c0.269-1.226,1.309-2.327,2.444-3.202c0.825-0.635,1.777-1.254,2.88-1.84
					c1.086,1.686,2.545,3.482,4.459,5.363l0,0c1.915,1.884,3.737,3.309,5.446,4.37c1.056,0.656,2.066,1.173,3.027,1.57
					c1.327,0.546,2.798,0.895,3.997,0.514c0.387-0.12,0.761-0.325,1.124-0.587c-0.758,1.737-1.578,3.196-2.424,4.415
					c-0.9,1.3-2.035,2.503-3.298,2.853c-1.262,0.352-2.856-0.096-4.295-0.747C200.331,29.233,198.875,28.402,197.332,27.308"/>
			</g>
		</g>
	</g>
	<g>
		<g>
			<path fill="#666666" d="M53.287,78.601c0.242,0,0.376,0.08,0.376,0.374v3.315c0,0.243-0.093,0.324-0.322,0.324h-0.883
				c-0.266,0-0.348-0.067-0.348-0.361v-2.249h-5.484v2.286c0,0.243-0.094,0.324-0.318,0.324h-0.885
				c-0.266,0-0.348-0.067-0.348-0.361v-3.278c0-0.294,0.133-0.374,0.375-0.374h0.188c1.242-1.739,1.751-3.864,1.751-5.792v-1.686
				c0-0.295,0.137-0.377,0.376-0.377h4.573c0.241,0,0.376,0.082,0.376,0.377v7.478H53.287z M49.035,72.7
				c0,1.942-0.415,4.095-1.646,5.9h3.601V72.14h-1.954V72.7z"/>
			<path fill="#666666" d="M57.703,80.165c-2.181,0-3.184-1.473-3.184-3.423c0-1.928,1.177-3.396,3.264-3.396
				c2.18,0,3.185,1.442,3.185,3.409C60.968,78.681,59.791,80.165,57.703,80.165z M57.771,74.613c-1.192,0-1.581,1.03-1.581,2.101
				c0,1.097,0.336,2.181,1.526,2.181c1.178,0,1.578-1.045,1.578-2.14C59.294,75.655,58.945,74.613,57.771,74.613z"/>
			<path fill="#666666" d="M66.637,78.613c0.148-0.053,0.241-0.066,0.294,0.12l0.172,0.589c0.03,0.095,0.044,0.175,0.044,0.227
				c0,0.107-0.068,0.16-0.188,0.216c-0.642,0.294-1.231,0.4-1.94,0.4c-2.061,0-3.198-1.285-3.198-3.342
				c0-2.076,1.245-3.478,3.318-3.478c0.604,0,1.229,0.12,1.792,0.372c0.172,0.08,0.172,0.174,0.135,0.349l-0.174,0.707
				c-0.027,0.122-0.081,0.19-0.161,0.19c-0.039,0-0.094-0.026-0.147-0.056c-0.389-0.161-0.814-0.295-1.284-0.295
				c-1.15,0-1.806,0.817-1.806,2.129c0,1.284,0.589,2.165,1.738,2.165C65.806,78.907,66.169,78.802,66.637,78.613z"/>
			<path fill="#666666" d="M67.786,74.627c-0.159,0-0.267-0.066-0.267-0.241v-0.629c0-0.172,0.107-0.238,0.267-0.238h5.204
				c0.16,0,0.268,0.066,0.268,0.238v0.629c0,0.175-0.107,0.241-0.268,0.241h-1.793v5.043c0,0.24-0.108,0.334-0.333,0.334h-0.938
				c-0.242,0-0.347-0.094-0.347-0.334v-5.043H67.786z"/>
			<path fill="#666666" d="M78.407,74.521v-0.671c0-0.239,0.105-0.332,0.348-0.332h0.938c0.227,0,0.333,0.093,0.333,0.332v5.819
				c0,0.24-0.106,0.334-0.333,0.334h-0.938c-0.242,0-0.348-0.094-0.348-0.334v-3.425l-2.568,2.716v0.709
				c0,0.24-0.108,0.334-0.335,0.334h-0.937c-0.239,0-0.348-0.094-0.348-0.334v-5.819c0-0.239,0.108-0.332,0.348-0.332h0.937
				c0.227,0,0.335,0.093,0.335,0.332v3.385L78.407,74.521z"/>
			<path fill="#666666" d="M85.322,73.851c0-0.239,0.105-0.332,0.348-0.332h0.938c0.227,0,0.333,0.093,0.333,0.332v5.819
				c0,0.24-0.106,0.334-0.348,0.334h-0.938c-0.228,0-0.333-0.094-0.333-0.334v-1.885c-0.469,0.188-1.244,0.345-1.901,0.345
				c-1.578,0-2.11-0.895-2.11-2.475v-1.805c0-0.239,0.106-0.332,0.347-0.332h0.935c0.229,0,0.336,0.093,0.336,0.332v1.647
				c0,0.801,0.094,1.244,1.057,1.244c0.454,0,1.002-0.11,1.338-0.217V73.851z"/>
			<path fill="#666666" d="M90.246,75.938c0.412-0.106,0.934-0.2,1.536-0.2c1.283,0,2.716,0.469,2.716,2.059
				c0,1.874-1.927,2.369-3.653,2.369c-0.572,0-1.203-0.066-1.749-0.161c-0.242-0.038-0.471-0.146-0.471-0.507v-5.646
				c0-0.239,0.108-0.332,0.348-0.332h0.938c0.228,0,0.336,0.093,0.336,0.332V75.938z M90.219,78.961
				c0.267,0.039,0.586,0.069,0.868,0.069c0.751,0,1.753-0.188,1.753-1.071c0-0.817-0.83-1.03-1.539-1.03
				c-0.401,0-0.763,0.067-1.082,0.146V78.961z"/>
			<path fill="#666666" d="M104.262,70.428c0.186-0.014,0.32,0.055,0.32,0.24v0.815c0,0.187-0.105,0.281-0.295,0.294l-1.122,0.108
				c-1.164,0.107-1.954,0.426-2.368,0.923c-0.361,0.427-0.426,0.948-0.481,1.713c0.522-0.48,1.23-0.765,2.061-0.765
				c1.578,0,2.635,0.99,2.635,2.998c0,2.047-1.243,3.41-3.25,3.41c-2.649,0-3.119-2.206-3.119-4.092
				c0-1.939,0.231-3.397,1.152-4.309c0.629-0.63,1.672-1.071,3.076-1.188L104.262,70.428z M100.304,75.924
				c0,2.063,0.467,2.971,1.51,2.971c1.069,0,1.512-0.963,1.512-2.033c0-0.843-0.241-1.832-1.379-1.832
				c-0.668,0-1.217,0.307-1.643,0.775V75.924z"/>
			<path fill="#666666" d="M109.117,80.165c-2.182,0-3.186-1.473-3.186-3.423c0-1.928,1.179-3.396,3.268-3.396
				c2.179,0,3.183,1.442,3.183,3.409C112.382,78.681,111.204,80.165,109.117,80.165z M109.185,74.613
				c-1.192,0-1.581,1.03-1.581,2.101c0,1.097,0.335,2.181,1.528,2.181c1.173,0,1.576-1.045,1.576-2.14
				C110.708,75.655,110.361,74.613,109.185,74.613z"/>
			<path fill="#666666" d="M116.006,75.442c0,1.979-0.336,4.309-2.609,4.644c-0.16,0.027-0.294-0.027-0.319-0.188l-0.134-0.761
				c-0.029-0.122,0.038-0.257,0.201-0.295c1.094-0.281,1.31-1.713,1.31-3.104v-1.91c0-0.229,0.132-0.309,0.346-0.309h4.161
				c0.214,0,0.349,0.08,0.349,0.309v5.843c0,0.24-0.107,0.334-0.349,0.334h-0.937c-0.229,0-0.336-0.094-0.336-0.334v-5.043h-1.683
				V75.442z"/>
			<path fill="#666666" d="M122.611,75.938c0.415-0.106,0.938-0.2,1.539-0.2c1.284,0,2.716,0.469,2.716,2.059
				c0,1.874-1.927,2.369-3.65,2.369c-0.578,0-1.206-0.066-1.754-0.161c-0.241-0.038-0.468-0.146-0.468-0.507v-5.646
				c0-0.239,0.107-0.332,0.346-0.332h0.938c0.227,0,0.333,0.093,0.333,0.332V75.938z M122.585,78.961
				c0.269,0.039,0.589,0.069,0.871,0.069c0.748,0,1.752-0.188,1.752-1.071c0-0.817-0.83-1.03-1.538-1.03
				c-0.401,0-0.764,0.067-1.085,0.146V78.961z"/>
			<path fill="#666666" d="M131.494,78.895v-5.044c0-0.239,0.107-0.332,0.347-0.332h0.896c0.229,0,0.336,0.093,0.336,0.332v5.044
				h1.966v-5.044c0-0.239,0.106-0.332,0.347-0.332h0.938c0.229,0,0.336,0.093,0.336,0.332v5.847c0,0.228-0.135,0.307-0.348,0.307
				h-8.054c-0.216,0-0.348-0.079-0.348-0.307v-5.847c0-0.239,0.107-0.332,0.348-0.332h0.937c0.229,0,0.333,0.093,0.333,0.332v5.044
				H131.494z"/>
			<path fill="#666666" d="M143.211,78.547c0.146-0.056,0.28-0.079,0.335,0.12l0.187,0.683c0.013,0.067,0.027,0.121,0.027,0.16
				c0,0.094-0.056,0.16-0.214,0.229c-0.654,0.292-1.553,0.427-2.247,0.427c-2.102,0-3.344-1.337-3.344-3.423
				c0-2.006,1.324-3.396,3.313-3.396c0.818,0,1.486,0.307,1.956,0.8c0.614,0.643,0.789,1.483,0.789,2.396v0.2
				c0,0.321-0.105,0.387-0.443,0.387h-3.916c0.104,1.029,0.854,1.739,1.913,1.739C142.126,78.868,142.688,78.748,143.211,78.547z
				 M142.423,76.073c0-0.027,0-0.123,0-0.149c-0.027-0.694-0.43-1.336-1.245-1.336c-0.869,0-1.392,0.694-1.498,1.485H142.423z"/>
			<path fill="#666666" d="M146.848,79.67c0,0.24-0.106,0.334-0.333,0.334h-0.936c-0.242,0-0.349-0.094-0.349-0.334v-5.843
				c0-0.229,0.133-0.309,0.349-0.309h3.729c0.163,0,0.271,0.066,0.271,0.238v0.629c0,0.175-0.108,0.241-0.271,0.241h-2.46V79.67z"/>
			<path fill="#666666" d="M152.962,80.165c-2.181,0-3.185-1.473-3.185-3.423c0-1.928,1.177-3.396,3.263-3.396
				c2.181,0,3.186,1.442,3.186,3.409C156.226,78.681,155.048,80.165,152.962,80.165z M153.027,74.613
				c-1.19,0-1.578,1.03-1.578,2.101c0,1.097,0.334,2.181,1.523,2.181c1.18,0,1.58-1.045,1.58-2.14
				C154.553,75.655,154.205,74.613,153.027,74.613z"/>
			<path fill="#666666" d="M160.759,73.827c0-0.229,0.135-0.309,0.346-0.309h2.408c1.554,0,2.622,0.467,2.622,1.617
				c0,0.669-0.347,1.218-1.109,1.39v0.043c0.923,0.077,1.526,0.628,1.526,1.43c0,1.578-1.354,2.006-2.932,2.006h-2.516
				c-0.211,0-0.346-0.079-0.346-0.307V73.827z M162.377,76.138h0.763c0.84,0,1.362-0.2,1.362-0.815c0-0.613-0.508-0.762-1.404-0.762
				h-0.721V76.138z M162.377,78.961h0.989c0.83,0,1.54-0.201,1.54-0.909c0-0.709-0.765-0.91-1.577-0.91h-0.952V78.961z"/>
			<path fill="#666666" d="M171.631,78.414l1.46-4.576c0.079-0.253,0.239-0.319,0.471-0.319h1.27c0.214,0,0.359,0.08,0.375,0.332
				l0.251,5.819c0.016,0.24-0.105,0.334-0.348,0.334h-0.813c-0.23,0-0.337-0.094-0.337-0.334l-0.081-4.348h-0.04l-1.337,4.348
				c-0.079,0.269-0.228,0.334-0.429,0.334h-1.056c-0.202,0-0.334-0.065-0.414-0.321l-1.405-4.372h-0.04l-0.079,4.359
				c0,0.24-0.108,0.334-0.336,0.334h-0.788c-0.24,0-0.362-0.094-0.348-0.334l0.28-5.819c0.014-0.252,0.16-0.332,0.373-0.332h1.337
				c0.229,0,0.39,0.066,0.471,0.319l1.524,4.576H171.631z"/>
			<path fill="#666666" d="M181.863,78.547c0.148-0.056,0.283-0.079,0.336,0.12l0.188,0.683c0.015,0.067,0.025,0.121,0.025,0.16
				c0,0.094-0.053,0.16-0.213,0.229c-0.654,0.292-1.551,0.427-2.247,0.427c-2.101,0-3.343-1.337-3.343-3.423
				c0-2.006,1.323-3.396,3.315-3.396c0.817,0,1.486,0.307,1.953,0.8c0.616,0.643,0.79,1.483,0.79,2.396v0.2
				c0,0.321-0.109,0.387-0.442,0.387h-3.919c0.107,1.029,0.857,1.739,1.916,1.739C180.781,78.868,181.344,78.748,181.863,78.547z
				 M181.075,76.073c0-0.027,0-0.123,0-0.149c-0.027-0.694-0.427-1.336-1.245-1.336c-0.866,0-1.389,0.694-1.497,1.485H181.075z"/>
			<path fill="#666666" d="M188.261,78.613c0.145-0.053,0.241-0.066,0.293,0.12l0.175,0.589c0.027,0.095,0.04,0.175,0.04,0.227
				c0,0.107-0.065,0.16-0.188,0.216c-0.64,0.294-1.229,0.4-1.939,0.4c-2.062,0-3.2-1.285-3.2-3.342c0-2.076,1.247-3.478,3.32-3.478
				c0.604,0,1.231,0.12,1.793,0.372c0.175,0.08,0.175,0.174,0.138,0.349l-0.177,0.707c-0.024,0.122-0.08,0.19-0.159,0.19
				c-0.045,0-0.095-0.026-0.149-0.056c-0.388-0.161-0.814-0.295-1.286-0.295c-1.149,0-1.804,0.817-1.804,2.129
				c0,1.284,0.588,2.165,1.738,2.165C187.429,78.907,187.789,78.802,188.261,78.613z"/>
			<path fill="#666666" d="M189.412,74.627c-0.16,0-0.269-0.066-0.269-0.241v-0.629c0-0.172,0.108-0.238,0.269-0.238h5.21
				c0.159,0,0.266,0.066,0.266,0.238v0.629c0,0.175-0.106,0.241-0.266,0.241h-1.796v5.043c0,0.24-0.108,0.334-0.33,0.334h-0.941
				c-0.242,0-0.349-0.094-0.349-0.334v-5.043H189.412z"/>
			<path fill="#666666" d="M200.347,78.547c0.146-0.056,0.277-0.079,0.332,0.12l0.187,0.683c0.015,0.067,0.029,0.121,0.029,0.16
				c0,0.094-0.052,0.16-0.216,0.229c-0.654,0.292-1.551,0.427-2.249,0.427c-2.097,0-3.341-1.337-3.341-3.423
				c0-2.006,1.323-3.396,3.318-3.396c0.814,0,1.483,0.307,1.951,0.8c0.615,0.643,0.79,1.483,0.79,2.396v0.2
				c0,0.321-0.106,0.387-0.44,0.387h-3.92c0.106,1.029,0.854,1.739,1.912,1.739C199.263,78.868,199.826,78.748,200.347,78.547z
				 M199.558,76.073c0-0.027,0-0.123,0-0.149c-0.029-0.694-0.43-1.336-1.244-1.336c-0.87,0-1.392,0.694-1.498,1.485H199.558z"/>
		</g>
	</g>
</g>
</svg>
