<svg width="767" height="606" viewBox="0 0 767 606" fill="none" xmlns="http://www.w3.org/2000/svg">
<path d="M-13 181C69.5207 184.591 245.804 172.861 392.667 284.413C539.53 395.965 683.642 500.096 718.923 543.664C754.203 587.232 767 615 767 615H-13V181Z" fill="#FFC5DA"/>
<path d="M53 378.229L50.5556 376L42 384.212L33.3222 376L31 378.229L39.5556 386.559L31 394.771L33.3222 397L42 388.788L50.5556 397L53 394.771L44.3222 386.559L53 378.229Z" fill="black"/>
<path d="M61 0H87L74.041 36L61 0Z" fill="#231F20"/>
<path d="M195.372 669.997C271.435 651.433 326.682 610.107 318.771 577.692C310.86 545.277 242.786 534.049 166.724 552.612C90.6609 571.176 35.4131 612.502 43.3242 644.917C51.2352 677.331 119.309 688.56 195.372 669.997Z" fill="#FFDDE9"/>
</svg>
