<svg width="404" height="224" viewBox="0 0 404 224" fill="none" xmlns="http://www.w3.org/2000/svg">
<path d="M2.77171 4.37546C3.97996 4.37546 4.95944 3.39598 4.95944 2.18773C4.95944 0.97948 3.97996 0 2.77171 0C1.56346 0 0.583984 0.97948 0.583984 2.18773C0.583984 3.39598 1.56346 4.37546 2.77171 4.37546Z" fill="black"/>
<path d="M23.7737 4.37546C24.9819 4.37546 25.9614 3.39598 25.9614 2.18773C25.9614 0.97948 24.9819 0 23.7737 0C22.5654 0 21.5859 0.97948 21.5859 2.18773C21.5859 3.39598 22.5654 4.37546 23.7737 4.37546Z" fill="black"/>
<path d="M44.7746 4.37546C45.9829 4.37546 46.9624 3.39598 46.9624 2.18773C46.9624 0.97948 45.9829 0 44.7746 0C43.5664 0 42.5869 0.97948 42.5869 2.18773C42.5869 3.39598 43.5664 4.37546 44.7746 4.37546Z" fill="black"/>
<path d="M65.7776 4.37546C66.9858 4.37546 67.9653 3.39598 67.9653 2.18773C67.9653 0.97948 66.9858 0 65.7776 0C64.5693 0 63.5898 0.97948 63.5898 2.18773C63.5898 3.39598 64.5693 4.37546 65.7776 4.37546Z" fill="black"/>
<path d="M86.7795 4.37546C87.9878 4.37546 88.9673 3.39598 88.9673 2.18773C88.9673 0.97948 87.9878 0 86.7795 0C85.5713 0 84.5918 0.97948 84.5918 2.18773C84.5918 3.39598 85.5713 4.37546 86.7795 4.37546Z" fill="black"/>
<path d="M107.782 4.37546C108.991 4.37546 109.97 3.39598 109.97 2.18773C109.97 0.97948 108.991 0 107.782 0C106.574 0 105.595 0.97948 105.595 2.18773C105.595 3.39598 106.574 4.37546 107.782 4.37546Z" fill="black"/>
<path d="M128.784 4.37546C129.993 4.37546 130.972 3.39598 130.972 2.18773C130.972 0.97948 129.993 0 128.784 0C127.576 0 126.597 0.97948 126.597 2.18773C126.597 3.39598 127.576 4.37546 128.784 4.37546Z" fill="black"/>
<path d="M149.785 4.37546C150.994 4.37546 151.973 3.39598 151.973 2.18773C151.973 0.97948 150.994 0 149.785 0C148.577 0 147.598 0.97948 147.598 2.18773C147.598 3.39598 148.577 4.37546 149.785 4.37546Z" fill="black"/>
<path d="M170.788 4.37546C171.997 4.37546 172.976 3.39598 172.976 2.18773C172.976 0.97948 171.997 0 170.788 0C169.58 0 168.601 0.97948 168.601 2.18773C168.601 3.39598 169.58 4.37546 170.788 4.37546Z" fill="black"/>
<path d="M191.79 4.37546C192.999 4.37546 193.978 3.39598 193.978 2.18773C193.978 0.97948 192.999 0 191.79 0C190.582 0 189.603 0.97948 189.603 2.18773C189.603 3.39598 190.582 4.37546 191.79 4.37546Z" fill="black"/>
<path d="M212.793 4.37546C214.001 4.37546 214.981 3.39598 214.981 2.18773C214.981 0.97948 214.001 0 212.793 0C211.585 0 210.605 0.97948 210.605 2.18773C210.605 3.39598 211.585 4.37546 212.793 4.37546Z" fill="black"/>
<path d="M233.796 4.37546C235.004 4.37546 235.984 3.39598 235.984 2.18773C235.984 0.97948 235.004 0 233.796 0C232.588 0 231.608 0.97948 231.608 2.18773C231.608 3.39598 232.588 4.37546 233.796 4.37546Z" fill="black"/>
<path d="M254.797 4.37546C256.005 4.37546 256.985 3.39598 256.985 2.18773C256.985 0.97948 256.005 0 254.797 0C253.589 0 252.609 0.97948 252.609 2.18773C252.609 3.39598 253.589 4.37546 254.797 4.37546Z" fill="black"/>
<path d="M275.8 4.37546C277.008 4.37546 277.988 3.39598 277.988 2.18773C277.988 0.97948 277.008 0 275.8 0C274.592 0 273.612 0.97948 273.612 2.18773C273.612 3.39598 274.592 4.37546 275.8 4.37546Z" fill="black"/>
<path d="M296.801 4.37546C298.009 4.37546 298.989 3.39598 298.989 2.18773C298.989 0.97948 298.009 0 296.801 0C295.593 0 294.613 0.97948 294.613 2.18773C294.613 3.39598 295.593 4.37546 296.801 4.37546Z" fill="black"/>
<path d="M317.804 4.37546C319.012 4.37546 319.992 3.39598 319.992 2.18773C319.992 0.97948 319.012 0 317.804 0C316.596 0 315.616 0.97948 315.616 2.18773C315.616 3.39598 316.596 4.37546 317.804 4.37546Z" fill="black"/>
<path d="M338.807 4.37546C340.015 4.37546 340.995 3.39598 340.995 2.18773C340.995 0.97948 340.015 0 338.807 0C337.599 0 336.619 0.97948 336.619 2.18773C336.619 3.39598 337.599 4.37546 338.807 4.37546Z" fill="black"/>
<path d="M359.808 4.37546C361.016 4.37546 361.996 3.39598 361.996 2.18773C361.996 0.97948 361.016 0 359.808 0C358.6 0 357.62 0.97948 357.62 2.18773C357.62 3.39598 358.6 4.37546 359.808 4.37546Z" fill="black"/>
<path d="M380.811 4.37546C382.019 4.37546 382.999 3.39598 382.999 2.18773C382.999 0.97948 382.019 0 380.811 0C379.603 0 378.623 0.97948 378.623 2.18773C378.623 3.39598 379.603 4.37546 380.811 4.37546Z" fill="black"/>
<path d="M401.812 4.37546C403.02 4.37546 403.999 3.39598 403.999 2.18773C403.999 0.97948 403.02 0 401.812 0C400.604 0 399.624 0.97948 399.624 2.18773C399.624 3.39598 400.604 4.37546 401.812 4.37546Z" fill="black"/>
<path d="M2.77074 28.7321C3.97899 28.7321 4.95847 27.7527 4.95847 26.5444C4.95847 25.3362 3.97899 24.3567 2.77074 24.3567C1.56249 24.3567 0.583008 25.3362 0.583008 26.5444C0.583008 27.7527 1.56249 28.7321 2.77074 28.7321Z" fill="black"/>
<path d="M23.7737 28.7321C24.9819 28.7321 25.9614 27.7527 25.9614 26.5444C25.9614 25.3362 24.9819 24.3567 23.7737 24.3567C22.5654 24.3567 21.5859 25.3362 21.5859 26.5444C21.5859 27.7527 22.5654 28.7321 23.7737 28.7321Z" fill="black"/>
<path d="M44.7746 28.7321C45.9829 28.7321 46.9624 27.7527 46.9624 26.5444C46.9624 25.3362 45.9829 24.3567 44.7746 24.3567C43.5664 24.3567 42.5869 25.3362 42.5869 26.5444C42.5869 27.7527 43.5664 28.7321 44.7746 28.7321Z" fill="black"/>
<path d="M65.7776 28.7321C66.9858 28.7321 67.9653 27.7527 67.9653 26.5444C67.9653 25.3362 66.9858 24.3567 65.7776 24.3567C64.5693 24.3567 63.5898 25.3362 63.5898 26.5444C63.5898 27.7527 64.5693 28.7321 65.7776 28.7321Z" fill="black"/>
<path d="M86.7795 28.7321C87.9878 28.7321 88.9673 27.7527 88.9673 26.5444C88.9673 25.3362 87.9878 24.3567 86.7795 24.3567C85.5713 24.3567 84.5918 25.3362 84.5918 26.5444C84.5918 27.7527 85.5713 28.7321 86.7795 28.7321Z" fill="black"/>
<path d="M107.782 28.7321C108.991 28.7321 109.97 27.7527 109.97 26.5444C109.97 25.3362 108.991 24.3567 107.782 24.3567C106.574 24.3567 105.595 25.3362 105.595 26.5444C105.595 27.7527 106.574 28.7321 107.782 28.7321Z" fill="black"/>
<path d="M128.784 28.7321C129.993 28.7321 130.972 27.7527 130.972 26.5444C130.972 25.3362 129.993 24.3567 128.784 24.3567C127.576 24.3567 126.597 25.3362 126.597 26.5444C126.597 27.7527 127.576 28.7321 128.784 28.7321Z" fill="black"/>
<path d="M149.785 28.7321C150.994 28.7321 151.973 27.7527 151.973 26.5444C151.973 25.3362 150.994 24.3567 149.785 24.3567C148.577 24.3567 147.598 25.3362 147.598 26.5444C147.598 27.7527 148.577 28.7321 149.785 28.7321Z" fill="black"/>
<path d="M170.788 28.7321C171.997 28.7321 172.976 27.7527 172.976 26.5444C172.976 25.3362 171.997 24.3567 170.788 24.3567C169.58 24.3567 168.601 25.3362 168.601 26.5444C168.601 27.7527 169.58 28.7321 170.788 28.7321Z" fill="black"/>
<path d="M191.79 28.7321C192.999 28.7321 193.978 27.7527 193.978 26.5444C193.978 25.3362 192.999 24.3567 191.79 24.3567C190.582 24.3567 189.603 25.3362 189.603 26.5444C189.603 27.7527 190.582 28.7321 191.79 28.7321Z" fill="black"/>
<path d="M212.793 28.7321C214.001 28.7321 214.981 27.7527 214.981 26.5444C214.981 25.3362 214.001 24.3567 212.793 24.3567C211.585 24.3567 210.605 25.3362 210.605 26.5444C210.605 27.7527 211.585 28.7321 212.793 28.7321Z" fill="black"/>
<path d="M233.796 28.7321C235.004 28.7321 235.984 27.7527 235.984 26.5444C235.984 25.3362 235.004 24.3567 233.796 24.3567C232.588 24.3567 231.608 25.3362 231.608 26.5444C231.608 27.7527 232.588 28.7321 233.796 28.7321Z" fill="black"/>
<path d="M254.797 28.7321C256.005 28.7321 256.985 27.7527 256.985 26.5444C256.985 25.3362 256.005 24.3567 254.797 24.3567C253.589 24.3567 252.609 25.3362 252.609 26.5444C252.609 27.7527 253.589 28.7321 254.797 28.7321Z" fill="black"/>
<path d="M275.8 28.7321C277.008 28.7321 277.988 27.7527 277.988 26.5444C277.988 25.3362 277.008 24.3567 275.8 24.3567C274.592 24.3567 273.612 25.3362 273.612 26.5444C273.612 27.7527 274.592 28.7321 275.8 28.7321Z" fill="black"/>
<path d="M296.801 28.7321C298.009 28.7321 298.989 27.7527 298.989 26.5444C298.989 25.3362 298.009 24.3567 296.801 24.3567C295.593 24.3567 294.613 25.3362 294.613 26.5444C294.613 27.7527 295.593 28.7321 296.801 28.7321Z" fill="black"/>
<path d="M317.804 28.7321C319.012 28.7321 319.992 27.7527 319.992 26.5444C319.992 25.3362 319.012 24.3567 317.804 24.3567C316.596 24.3567 315.616 25.3362 315.616 26.5444C315.616 27.7527 316.596 28.7321 317.804 28.7321Z" fill="black"/>
<path d="M338.807 28.7321C340.015 28.7321 340.995 27.7527 340.995 26.5444C340.995 25.3362 340.015 24.3567 338.807 24.3567C337.599 24.3567 336.619 25.3362 336.619 26.5444C336.619 27.7527 337.599 28.7321 338.807 28.7321Z" fill="black"/>
<path d="M359.808 28.7321C361.016 28.7321 361.996 27.7527 361.996 26.5444C361.996 25.3362 361.016 24.3567 359.808 24.3567C358.6 24.3567 357.62 25.3362 357.62 26.5444C357.62 27.7527 358.6 28.7321 359.808 28.7321Z" fill="black"/>
<path d="M380.811 28.7321C382.019 28.7321 382.999 27.7527 382.999 26.5444C382.999 25.3362 382.019 24.3567 380.811 24.3567C379.603 24.3567 378.623 25.3362 378.623 26.5444C378.623 27.7527 379.603 28.7321 380.811 28.7321Z" fill="black"/>
<path d="M401.812 28.7321C403.02 28.7321 403.999 27.7527 403.999 26.5444C403.999 25.3362 403.02 24.3567 401.812 24.3567C400.604 24.3567 399.624 25.3362 399.624 26.5444C399.624 27.7527 400.604 28.7321 401.812 28.7321Z" fill="black"/>
<path d="M4.95847 50.9011C4.95847 52.0679 3.93753 53.0888 2.77074 53.0888C1.60395 53.0888 0.583008 52.0679 0.583008 50.9011C0.583008 49.7343 1.60395 48.7134 2.77074 48.7134C4.08337 48.7134 4.95847 49.5885 4.95847 50.9011Z" fill="black"/>
<path d="M25.9614 50.9011C25.9614 52.0679 24.9405 53.0888 23.7737 53.0888C22.6069 53.0888 21.5859 52.0679 21.5859 50.9011C21.5859 49.7343 22.6069 48.7134 23.7737 48.7134C25.0863 48.7134 25.9614 49.5885 25.9614 50.9011Z" fill="black"/>
<path d="M46.9624 50.9011C46.9624 52.0679 45.9414 53.0888 44.7746 53.0888C43.6079 53.0888 42.5869 52.0679 42.5869 50.9011C42.5869 49.7343 43.6079 48.7134 44.7746 48.7134C46.0873 48.7134 46.9624 49.5885 46.9624 50.9011Z" fill="black"/>
<path d="M67.9653 50.9011C67.9653 52.0679 66.9444 53.0888 65.7776 53.0888C64.6108 53.0888 63.5898 52.0679 63.5898 50.9011C63.5898 49.7343 64.6108 48.7134 65.7776 48.7134C67.0902 48.7134 67.9653 49.5885 67.9653 50.9011Z" fill="black"/>
<path d="M88.9673 50.9011C88.9673 52.0679 87.9463 53.0888 86.7795 53.0888C85.6127 53.0888 84.5918 52.0679 84.5918 50.9011C84.5918 49.7343 85.6127 48.7134 86.7795 48.7134C88.0922 48.7134 88.9673 49.5885 88.9673 50.9011Z" fill="black"/>
<path d="M109.97 50.9011C109.97 52.0679 108.949 53.0888 107.782 53.0888C106.616 53.0888 105.595 52.0679 105.595 50.9011C105.595 49.7343 106.616 48.7134 107.782 48.7134C109.095 48.7134 109.97 49.5885 109.97 50.9011Z" fill="black"/>
<path d="M130.972 50.9011C130.972 52.0679 129.951 53.0888 128.784 53.0888C127.618 53.0888 126.597 52.0679 126.597 50.9011C126.597 49.7343 127.618 48.7134 128.784 48.7134C130.097 48.7134 130.972 49.5885 130.972 50.9011Z" fill="black"/>
<path d="M151.973 50.9011C151.973 52.0679 150.952 53.0888 149.785 53.0888C148.619 53.0888 147.598 52.0679 147.598 50.9011C147.598 49.7343 148.619 48.7134 149.785 48.7134C151.098 48.7134 151.973 49.5885 151.973 50.9011Z" fill="black"/>
<path d="M172.976 50.9011C172.976 52.0679 171.955 53.0888 170.788 53.0888C169.622 53.0888 168.601 52.0679 168.601 50.9011C168.601 49.7343 169.622 48.7134 170.788 48.7134C172.101 48.7134 172.976 49.5885 172.976 50.9011Z" fill="black"/>
<path d="M193.978 50.9011C193.978 52.0679 192.957 53.0888 191.79 53.0888C190.623 53.0888 189.603 52.0679 189.603 50.9011C189.603 49.7343 190.623 48.7134 191.79 48.7134C193.103 48.7134 193.978 49.5885 193.978 50.9011Z" fill="black"/>
<path d="M214.981 50.9011C214.981 52.0679 213.96 53.0888 212.793 53.0888C211.626 53.0888 210.605 52.0679 210.605 50.9011C210.605 49.7343 211.626 48.7134 212.793 48.7134C214.106 48.7134 214.981 49.5885 214.981 50.9011Z" fill="black"/>
<path d="M235.984 50.9011C235.984 52.0679 234.963 53.0888 233.796 53.0888C232.629 53.0888 231.608 52.0679 231.608 50.9011C231.608 49.7343 232.629 48.7134 233.796 48.7134C235.109 48.7134 235.984 49.5885 235.984 50.9011Z" fill="black"/>
<path d="M256.985 50.9011C256.985 52.0679 255.964 53.0888 254.797 53.0888C253.63 53.0888 252.609 52.0679 252.609 50.9011C252.609 49.7343 253.63 48.7134 254.797 48.7134C256.11 48.7134 256.985 49.5885 256.985 50.9011Z" fill="black"/>
<path d="M277.988 50.9011C277.988 52.0679 276.967 53.0888 275.8 53.0888C274.633 53.0888 273.612 52.0679 273.612 50.9011C273.612 49.7343 274.633 48.7134 275.8 48.7134C277.113 48.7134 277.988 49.5885 277.988 50.9011Z" fill="black"/>
<path d="M298.989 50.9011C298.989 52.0679 297.968 53.0888 296.801 53.0888C295.634 53.0888 294.613 52.0679 294.613 50.9011C294.613 49.7343 295.634 48.7134 296.801 48.7134C298.114 48.7134 298.989 49.5885 298.989 50.9011Z" fill="black"/>
<path d="M319.992 50.9011C319.992 52.0679 318.971 53.0888 317.804 53.0888C316.637 53.0888 315.616 52.0679 315.616 50.9011C315.616 49.7343 316.637 48.7134 317.804 48.7134C319.117 48.7134 319.992 49.5885 319.992 50.9011Z" fill="black"/>
<path d="M340.995 50.9011C340.995 52.0679 339.974 53.0888 338.807 53.0888C337.64 53.0888 336.619 52.0679 336.619 50.9011C336.619 49.7343 337.64 48.7134 338.807 48.7134C340.12 48.7134 340.995 49.5885 340.995 50.9011Z" fill="black"/>
<path d="M361.996 50.9011C361.996 52.0679 360.975 53.0888 359.808 53.0888C358.641 53.0888 357.62 52.0679 357.62 50.9011C357.62 49.7343 358.641 48.7134 359.808 48.7134C361.12 48.7134 361.996 49.5885 361.996 50.9011Z" fill="black"/>
<path d="M382.999 50.9011C382.999 52.0679 381.978 53.0888 380.811 53.0888C379.644 53.0888 378.623 52.0679 378.623 50.9011C378.623 49.7343 379.644 48.7134 380.811 48.7134C382.123 48.7134 382.999 49.5885 382.999 50.9011Z" fill="black"/>
<path d="M403.999 50.9011C403.999 52.0679 402.979 53.0888 401.812 53.0888C400.645 53.0888 399.624 52.0679 399.624 50.9011C399.624 49.7343 400.645 48.7134 401.812 48.7134C403.124 48.7134 403.999 49.5885 403.999 50.9011Z" fill="black"/>
<path d="M2.77074 77.4455C3.97899 77.4455 4.95847 76.466 4.95847 75.2578C4.95847 74.0495 3.97899 73.0701 2.77074 73.0701C1.56249 73.0701 0.583008 74.0495 0.583008 75.2578C0.583008 76.466 1.56249 77.4455 2.77074 77.4455Z" fill="black"/>
<path d="M23.7737 77.4455C24.9819 77.4455 25.9614 76.466 25.9614 75.2578C25.9614 74.0495 24.9819 73.0701 23.7737 73.0701C22.5654 73.0701 21.5859 74.0495 21.5859 75.2578C21.5859 76.466 22.5654 77.4455 23.7737 77.4455Z" fill="black"/>
<path d="M44.7746 77.4455C45.9829 77.4455 46.9624 76.466 46.9624 75.2578C46.9624 74.0495 45.9829 73.0701 44.7746 73.0701C43.5664 73.0701 42.5869 74.0495 42.5869 75.2578C42.5869 76.466 43.5664 77.4455 44.7746 77.4455Z" fill="black"/>
<path d="M65.7776 77.4455C66.9858 77.4455 67.9653 76.466 67.9653 75.2578C67.9653 74.0495 66.9858 73.0701 65.7776 73.0701C64.5693 73.0701 63.5898 74.0495 63.5898 75.2578C63.5898 76.466 64.5693 77.4455 65.7776 77.4455Z" fill="black"/>
<path d="M86.7795 77.4455C87.9878 77.4455 88.9673 76.466 88.9673 75.2578C88.9673 74.0495 87.9878 73.0701 86.7795 73.0701C85.5713 73.0701 84.5918 74.0495 84.5918 75.2578C84.5918 76.466 85.5713 77.4455 86.7795 77.4455Z" fill="black"/>
<path d="M107.782 77.4455C108.991 77.4455 109.97 76.466 109.97 75.2578C109.97 74.0495 108.991 73.0701 107.782 73.0701C106.574 73.0701 105.595 74.0495 105.595 75.2578C105.595 76.466 106.574 77.4455 107.782 77.4455Z" fill="black"/>
<path d="M128.784 77.4455C129.993 77.4455 130.972 76.466 130.972 75.2578C130.972 74.0495 129.993 73.0701 128.784 73.0701C127.576 73.0701 126.597 74.0495 126.597 75.2578C126.597 76.466 127.576 77.4455 128.784 77.4455Z" fill="black"/>
<path d="M149.785 77.4455C150.994 77.4455 151.973 76.466 151.973 75.2578C151.973 74.0495 150.994 73.0701 149.785 73.0701C148.577 73.0701 147.598 74.0495 147.598 75.2578C147.598 76.466 148.577 77.4455 149.785 77.4455Z" fill="black"/>
<path d="M170.788 77.4455C171.997 77.4455 172.976 76.466 172.976 75.2578C172.976 74.0495 171.997 73.0701 170.788 73.0701C169.58 73.0701 168.601 74.0495 168.601 75.2578C168.601 76.466 169.58 77.4455 170.788 77.4455Z" fill="black"/>
<path d="M191.79 77.4455C192.999 77.4455 193.978 76.466 193.978 75.2578C193.978 74.0495 192.999 73.0701 191.79 73.0701C190.582 73.0701 189.603 74.0495 189.603 75.2578C189.603 76.466 190.582 77.4455 191.79 77.4455Z" fill="black"/>
<path d="M212.793 77.4455C214.001 77.4455 214.981 76.466 214.981 75.2578C214.981 74.0495 214.001 73.0701 212.793 73.0701C211.585 73.0701 210.605 74.0495 210.605 75.2578C210.605 76.466 211.585 77.4455 212.793 77.4455Z" fill="black"/>
<path d="M233.796 77.4455C235.004 77.4455 235.984 76.466 235.984 75.2578C235.984 74.0495 235.004 73.0701 233.796 73.0701C232.588 73.0701 231.608 74.0495 231.608 75.2578C231.608 76.466 232.588 77.4455 233.796 77.4455Z" fill="black"/>
<path d="M254.797 77.4455C256.005 77.4455 256.985 76.466 256.985 75.2578C256.985 74.0495 256.005 73.0701 254.797 73.0701C253.589 73.0701 252.609 74.0495 252.609 75.2578C252.609 76.466 253.589 77.4455 254.797 77.4455Z" fill="black"/>
<path d="M275.8 77.4455C277.008 77.4455 277.988 76.466 277.988 75.2578C277.988 74.0495 277.008 73.0701 275.8 73.0701C274.592 73.0701 273.612 74.0495 273.612 75.2578C273.612 76.466 274.592 77.4455 275.8 77.4455Z" fill="black"/>
<path d="M296.801 77.4455C298.009 77.4455 298.989 76.466 298.989 75.2578C298.989 74.0495 298.009 73.0701 296.801 73.0701C295.593 73.0701 294.613 74.0495 294.613 75.2578C294.613 76.466 295.593 77.4455 296.801 77.4455Z" fill="black"/>
<path d="M317.804 77.4455C319.012 77.4455 319.992 76.466 319.992 75.2578C319.992 74.0495 319.012 73.0701 317.804 73.0701C316.596 73.0701 315.616 74.0495 315.616 75.2578C315.616 76.466 316.596 77.4455 317.804 77.4455Z" fill="black"/>
<path d="M338.807 77.4455C340.015 77.4455 340.995 76.466 340.995 75.2578C340.995 74.0495 340.015 73.0701 338.807 73.0701C337.599 73.0701 336.619 74.0495 336.619 75.2578C336.619 76.466 337.599 77.4455 338.807 77.4455Z" fill="black"/>
<path d="M359.808 77.4455C361.016 77.4455 361.996 76.466 361.996 75.2578C361.996 74.0495 361.016 73.0701 359.808 73.0701C358.6 73.0701 357.62 74.0495 357.62 75.2578C357.62 76.466 358.6 77.4455 359.808 77.4455Z" fill="black"/>
<path d="M380.811 77.4455C382.019 77.4455 382.999 76.466 382.999 75.2578C382.999 74.0495 382.019 73.0701 380.811 73.0701C379.603 73.0701 378.623 74.0495 378.623 75.2578C378.623 76.466 379.603 77.4455 380.811 77.4455Z" fill="black"/>
<path d="M401.812 77.4455C403.02 77.4455 403.999 76.466 403.999 75.2578C403.999 74.0495 403.02 73.0701 401.812 73.0701C400.604 73.0701 399.624 74.0495 399.624 75.2578C399.624 76.466 400.604 77.4455 401.812 77.4455Z" fill="black"/>
<path d="M2.77074 101.656C3.97899 101.656 4.95847 100.677 4.95847 99.4687C4.95847 98.2605 3.97899 97.281 2.77074 97.281C1.56249 97.281 0.583008 98.2605 0.583008 99.4687C0.583008 100.677 1.56249 101.656 2.77074 101.656Z" fill="black"/>
<path d="M23.7737 101.656C24.9819 101.656 25.9614 100.677 25.9614 99.4687C25.9614 98.2605 24.9819 97.281 23.7737 97.281C22.5654 97.281 21.5859 98.2605 21.5859 99.4687C21.5859 100.677 22.5654 101.656 23.7737 101.656Z" fill="black"/>
<path d="M44.7746 101.656C45.9829 101.656 46.9624 100.677 46.9624 99.4687C46.9624 98.2605 45.9829 97.281 44.7746 97.281C43.5664 97.281 42.5869 98.2605 42.5869 99.4687C42.5869 100.677 43.5664 101.656 44.7746 101.656Z" fill="black"/>
<path d="M65.7776 101.656C66.9858 101.656 67.9653 100.677 67.9653 99.4687C67.9653 98.2605 66.9858 97.281 65.7776 97.281C64.5693 97.281 63.5898 98.2605 63.5898 99.4687C63.5898 100.677 64.5693 101.656 65.7776 101.656Z" fill="black"/>
<path d="M86.7795 101.656C87.9878 101.656 88.9673 100.677 88.9673 99.4687C88.9673 98.2605 87.9878 97.281 86.7795 97.281C85.5713 97.281 84.5918 98.2605 84.5918 99.4687C84.5918 100.677 85.5713 101.656 86.7795 101.656Z" fill="black"/>
<path d="M107.782 101.656C108.991 101.656 109.97 100.677 109.97 99.4687C109.97 98.2605 108.991 97.281 107.782 97.281C106.574 97.281 105.595 98.2605 105.595 99.4687C105.595 100.677 106.574 101.656 107.782 101.656Z" fill="black"/>
<path d="M128.784 101.656C129.993 101.656 130.972 100.677 130.972 99.4687C130.972 98.2605 129.993 97.281 128.784 97.281C127.576 97.281 126.597 98.2605 126.597 99.4687C126.597 100.677 127.576 101.656 128.784 101.656Z" fill="black"/>
<path d="M149.785 101.656C150.994 101.656 151.973 100.677 151.973 99.4687C151.973 98.2605 150.994 97.281 149.785 97.281C148.577 97.281 147.598 98.2605 147.598 99.4687C147.598 100.677 148.577 101.656 149.785 101.656Z" fill="black"/>
<path d="M170.788 101.656C171.997 101.656 172.976 100.677 172.976 99.4687C172.976 98.2605 171.997 97.281 170.788 97.281C169.58 97.281 168.601 98.2605 168.601 99.4687C168.601 100.677 169.58 101.656 170.788 101.656Z" fill="black"/>
<path d="M191.79 101.656C192.999 101.656 193.978 100.677 193.978 99.4687C193.978 98.2605 192.999 97.281 191.79 97.281C190.582 97.281 189.603 98.2605 189.603 99.4687C189.603 100.677 190.582 101.656 191.79 101.656Z" fill="black"/>
<path d="M212.793 101.656C214.001 101.656 214.981 100.677 214.981 99.4687C214.981 98.2605 214.001 97.281 212.793 97.281C211.585 97.281 210.605 98.2605 210.605 99.4687C210.605 100.677 211.585 101.656 212.793 101.656Z" fill="black"/>
<path d="M233.796 101.656C235.004 101.656 235.984 100.677 235.984 99.4687C235.984 98.2605 235.004 97.281 233.796 97.281C232.588 97.281 231.608 98.2605 231.608 99.4687C231.608 100.677 232.588 101.656 233.796 101.656Z" fill="black"/>
<path d="M254.797 101.656C256.005 101.656 256.985 100.677 256.985 99.4687C256.985 98.2605 256.005 97.281 254.797 97.281C253.589 97.281 252.609 98.2605 252.609 99.4687C252.609 100.677 253.589 101.656 254.797 101.656Z" fill="black"/>
<path d="M275.8 101.656C277.008 101.656 277.988 100.677 277.988 99.4687C277.988 98.2605 277.008 97.281 275.8 97.281C274.592 97.281 273.612 98.2605 273.612 99.4687C273.612 100.677 274.592 101.656 275.8 101.656Z" fill="black"/>
<path d="M296.801 101.656C298.009 101.656 298.989 100.677 298.989 99.4687C298.989 98.2605 298.009 97.281 296.801 97.281C295.593 97.281 294.613 98.2605 294.613 99.4687C294.613 100.677 295.593 101.656 296.801 101.656Z" fill="black"/>
<path d="M317.804 101.656C319.012 101.656 319.992 100.677 319.992 99.4687C319.992 98.2605 319.012 97.281 317.804 97.281C316.596 97.281 315.616 98.2605 315.616 99.4687C315.616 100.677 316.596 101.656 317.804 101.656Z" fill="black"/>
<path d="M338.807 101.656C340.015 101.656 340.995 100.677 340.995 99.4687C340.995 98.2605 340.015 97.281 338.807 97.281C337.599 97.281 336.619 98.2605 336.619 99.4687C336.619 100.677 337.599 101.656 338.807 101.656Z" fill="black"/>
<path d="M359.808 101.656C361.016 101.656 361.996 100.677 361.996 99.4687C361.996 98.2605 361.016 97.281 359.808 97.281C358.6 97.281 357.62 98.2605 357.62 99.4687C357.62 100.677 358.6 101.656 359.808 101.656Z" fill="black"/>
<path d="M380.811 101.656C382.019 101.656 382.999 100.677 382.999 99.4687C382.999 98.2605 382.019 97.281 380.811 97.281C379.603 97.281 378.623 98.2605 378.623 99.4687C378.623 100.677 379.603 101.656 380.811 101.656Z" fill="black"/>
<path d="M401.812 101.656C403.02 101.656 403.999 100.677 403.999 99.4687C403.999 98.2605 403.02 97.281 401.812 97.281C400.604 97.281 399.624 98.2605 399.624 99.4687C399.624 100.677 400.604 101.656 401.812 101.656Z" fill="black"/>
<path d="M2.77074 126.013C3.97899 126.013 4.95847 125.034 4.95847 123.825C4.95847 122.617 3.97899 121.638 2.77074 121.638C1.56249 121.638 0.583008 122.617 0.583008 123.825C0.583008 125.034 1.56249 126.013 2.77074 126.013Z" fill="black"/>
<path d="M23.7737 126.013C24.9819 126.013 25.9614 125.034 25.9614 123.825C25.9614 122.617 24.9819 121.638 23.7737 121.638C22.5654 121.638 21.5859 122.617 21.5859 123.825C21.5859 125.034 22.5654 126.013 23.7737 126.013Z" fill="black"/>
<path d="M44.7746 126.013C45.9829 126.013 46.9624 125.034 46.9624 123.825C46.9624 122.617 45.9829 121.638 44.7746 121.638C43.5664 121.638 42.5869 122.617 42.5869 123.825C42.5869 125.034 43.5664 126.013 44.7746 126.013Z" fill="black"/>
<path d="M65.7776 126.013C66.9858 126.013 67.9653 125.034 67.9653 123.825C67.9653 122.617 66.9858 121.638 65.7776 121.638C64.5693 121.638 63.5898 122.617 63.5898 123.825C63.5898 125.034 64.5693 126.013 65.7776 126.013Z" fill="black"/>
<path d="M86.7795 126.013C87.9878 126.013 88.9673 125.034 88.9673 123.825C88.9673 122.617 87.9878 121.638 86.7795 121.638C85.5713 121.638 84.5918 122.617 84.5918 123.825C84.5918 125.034 85.5713 126.013 86.7795 126.013Z" fill="black"/>
<path d="M107.782 126.013C108.991 126.013 109.97 125.034 109.97 123.825C109.97 122.617 108.991 121.638 107.782 121.638C106.574 121.638 105.595 122.617 105.595 123.825C105.595 125.034 106.574 126.013 107.782 126.013Z" fill="black"/>
<path d="M128.784 126.013C129.993 126.013 130.972 125.034 130.972 123.825C130.972 122.617 129.993 121.638 128.784 121.638C127.576 121.638 126.597 122.617 126.597 123.825C126.597 125.034 127.576 126.013 128.784 126.013Z" fill="black"/>
<path d="M149.785 126.013C150.994 126.013 151.973 125.034 151.973 123.825C151.973 122.617 150.994 121.638 149.785 121.638C148.577 121.638 147.598 122.617 147.598 123.825C147.598 125.034 148.577 126.013 149.785 126.013Z" fill="black"/>
<path d="M170.788 126.013C171.997 126.013 172.976 125.034 172.976 123.825C172.976 122.617 171.997 121.638 170.788 121.638C169.58 121.638 168.601 122.617 168.601 123.825C168.601 125.034 169.58 126.013 170.788 126.013Z" fill="black"/>
<path d="M191.79 126.013C192.999 126.013 193.978 125.034 193.978 123.825C193.978 122.617 192.999 121.638 191.79 121.638C190.582 121.638 189.603 122.617 189.603 123.825C189.603 125.034 190.582 126.013 191.79 126.013Z" fill="black"/>
<path d="M212.793 126.013C214.001 126.013 214.981 125.034 214.981 123.825C214.981 122.617 214.001 121.638 212.793 121.638C211.585 121.638 210.605 122.617 210.605 123.825C210.605 125.034 211.585 126.013 212.793 126.013Z" fill="black"/>
<path d="M233.796 126.013C235.004 126.013 235.984 125.034 235.984 123.825C235.984 122.617 235.004 121.638 233.796 121.638C232.588 121.638 231.608 122.617 231.608 123.825C231.608 125.034 232.588 126.013 233.796 126.013Z" fill="black"/>
<path d="M254.797 126.013C256.005 126.013 256.985 125.034 256.985 123.825C256.985 122.617 256.005 121.638 254.797 121.638C253.589 121.638 252.609 122.617 252.609 123.825C252.609 125.034 253.589 126.013 254.797 126.013Z" fill="black"/>
<path d="M275.8 126.013C277.008 126.013 277.988 125.034 277.988 123.825C277.988 122.617 277.008 121.638 275.8 121.638C274.592 121.638 273.612 122.617 273.612 123.825C273.612 125.034 274.592 126.013 275.8 126.013Z" fill="black"/>
<path d="M296.801 126.013C298.009 126.013 298.989 125.034 298.989 123.825C298.989 122.617 298.009 121.638 296.801 121.638C295.593 121.638 294.613 122.617 294.613 123.825C294.613 125.034 295.593 126.013 296.801 126.013Z" fill="black"/>
<path d="M317.804 126.013C319.012 126.013 319.992 125.034 319.992 123.825C319.992 122.617 319.012 121.638 317.804 121.638C316.596 121.638 315.616 122.617 315.616 123.825C315.616 125.034 316.596 126.013 317.804 126.013Z" fill="black"/>
<path d="M338.807 126.013C340.015 126.013 340.995 125.034 340.995 123.825C340.995 122.617 340.015 121.638 338.807 121.638C337.599 121.638 336.619 122.617 336.619 123.825C336.619 125.034 337.599 126.013 338.807 126.013Z" fill="black"/>
<path d="M359.808 126.013C361.016 126.013 361.996 125.034 361.996 123.825C361.996 122.617 361.016 121.638 359.808 121.638C358.6 121.638 357.62 122.617 357.62 123.825C357.62 125.034 358.6 126.013 359.808 126.013Z" fill="black"/>
<path d="M380.811 126.013C382.019 126.013 382.999 125.034 382.999 123.825C382.999 122.617 382.019 121.638 380.811 121.638C379.603 121.638 378.623 122.617 378.623 123.825C378.623 125.034 379.603 126.013 380.811 126.013Z" fill="black"/>
<path d="M401.812 126.013C403.02 126.013 403.999 125.034 403.999 123.825C403.999 122.617 403.02 121.638 401.812 121.638C400.604 121.638 399.624 122.617 399.624 123.825C399.624 125.034 400.604 126.013 401.812 126.013Z" fill="black"/>
<path d="M2.77074 150.37C3.97899 150.37 4.95847 149.39 4.95847 148.182C4.95847 146.974 3.97899 145.994 2.77074 145.994C1.56249 145.994 0.583008 146.974 0.583008 148.182C0.583008 149.39 1.56249 150.37 2.77074 150.37Z" fill="black"/>
<path d="M23.7737 150.37C24.9819 150.37 25.9614 149.39 25.9614 148.182C25.9614 146.974 24.9819 145.994 23.7737 145.994C22.5654 145.994 21.5859 146.974 21.5859 148.182C21.5859 149.39 22.5654 150.37 23.7737 150.37Z" fill="black"/>
<path d="M44.7746 150.37C45.9829 150.37 46.9624 149.39 46.9624 148.182C46.9624 146.974 45.9829 145.994 44.7746 145.994C43.5664 145.994 42.5869 146.974 42.5869 148.182C42.5869 149.39 43.5664 150.37 44.7746 150.37Z" fill="black"/>
<path d="M65.7776 150.37C66.9858 150.37 67.9653 149.39 67.9653 148.182C67.9653 146.974 66.9858 145.994 65.7776 145.994C64.5693 145.994 63.5898 146.974 63.5898 148.182C63.5898 149.39 64.5693 150.37 65.7776 150.37Z" fill="black"/>
<path d="M86.7795 150.37C87.9878 150.37 88.9673 149.39 88.9673 148.182C88.9673 146.974 87.9878 145.994 86.7795 145.994C85.5713 145.994 84.5918 146.974 84.5918 148.182C84.5918 149.39 85.5713 150.37 86.7795 150.37Z" fill="black"/>
<path d="M107.782 150.37C108.991 150.37 109.97 149.39 109.97 148.182C109.97 146.974 108.991 145.994 107.782 145.994C106.574 145.994 105.595 146.974 105.595 148.182C105.595 149.39 106.574 150.37 107.782 150.37Z" fill="black"/>
<path d="M128.784 150.37C129.993 150.37 130.972 149.39 130.972 148.182C130.972 146.974 129.993 145.994 128.784 145.994C127.576 145.994 126.597 146.974 126.597 148.182C126.597 149.39 127.576 150.37 128.784 150.37Z" fill="black"/>
<path d="M149.785 150.37C150.994 150.37 151.973 149.39 151.973 148.182C151.973 146.974 150.994 145.994 149.785 145.994C148.577 145.994 147.598 146.974 147.598 148.182C147.598 149.39 148.577 150.37 149.785 150.37Z" fill="black"/>
<path d="M170.788 150.37C171.997 150.37 172.976 149.39 172.976 148.182C172.976 146.974 171.997 145.994 170.788 145.994C169.58 145.994 168.601 146.974 168.601 148.182C168.601 149.39 169.58 150.37 170.788 150.37Z" fill="black"/>
<path d="M191.79 150.37C192.999 150.37 193.978 149.39 193.978 148.182C193.978 146.974 192.999 145.994 191.79 145.994C190.582 145.994 189.603 146.974 189.603 148.182C189.603 149.39 190.582 150.37 191.79 150.37Z" fill="black"/>
<path d="M212.793 150.37C214.001 150.37 214.981 149.39 214.981 148.182C214.981 146.974 214.001 145.994 212.793 145.994C211.585 145.994 210.605 146.974 210.605 148.182C210.605 149.39 211.585 150.37 212.793 150.37Z" fill="black"/>
<path d="M233.796 150.37C235.004 150.37 235.984 149.39 235.984 148.182C235.984 146.974 235.004 145.994 233.796 145.994C232.588 145.994 231.608 146.974 231.608 148.182C231.608 149.39 232.588 150.37 233.796 150.37Z" fill="black"/>
<path d="M254.797 150.37C256.005 150.37 256.985 149.39 256.985 148.182C256.985 146.974 256.005 145.994 254.797 145.994C253.589 145.994 252.609 146.974 252.609 148.182C252.609 149.39 253.589 150.37 254.797 150.37Z" fill="black"/>
<path d="M275.8 150.37C277.008 150.37 277.988 149.39 277.988 148.182C277.988 146.974 277.008 145.994 275.8 145.994C274.592 145.994 273.612 146.974 273.612 148.182C273.612 149.39 274.592 150.37 275.8 150.37Z" fill="black"/>
<path d="M296.801 150.37C298.009 150.37 298.989 149.39 298.989 148.182C298.989 146.974 298.009 145.994 296.801 145.994C295.593 145.994 294.613 146.974 294.613 148.182C294.613 149.39 295.593 150.37 296.801 150.37Z" fill="black"/>
<path d="M317.804 150.37C319.012 150.37 319.992 149.39 319.992 148.182C319.992 146.974 319.012 145.994 317.804 145.994C316.596 145.994 315.616 146.974 315.616 148.182C315.616 149.39 316.596 150.37 317.804 150.37Z" fill="black"/>
<path d="M338.807 150.37C340.015 150.37 340.995 149.39 340.995 148.182C340.995 146.974 340.015 145.994 338.807 145.994C337.599 145.994 336.619 146.974 336.619 148.182C336.619 149.39 337.599 150.37 338.807 150.37Z" fill="black"/>
<path d="M359.808 150.37C361.016 150.37 361.996 149.39 361.996 148.182C361.996 146.974 361.016 145.994 359.808 145.994C358.6 145.994 357.62 146.974 357.62 148.182C357.62 149.39 358.6 150.37 359.808 150.37Z" fill="black"/>
<path d="M380.811 150.37C382.019 150.37 382.999 149.39 382.999 148.182C382.999 146.974 382.019 145.994 380.811 145.994C379.603 145.994 378.623 146.974 378.623 148.182C378.623 149.39 379.603 150.37 380.811 150.37Z" fill="black"/>
<path d="M401.812 150.37C403.02 150.37 403.999 149.39 403.999 148.182C403.999 146.974 403.02 145.994 401.812 145.994C400.604 145.994 399.624 146.974 399.624 148.182C399.624 149.39 400.604 150.37 401.812 150.37Z" fill="black"/>
<path d="M2.77074 174.581C3.97899 174.581 4.95847 173.601 4.95847 172.393C4.95847 171.185 3.97899 170.205 2.77074 170.205C1.56249 170.205 0.583008 171.185 0.583008 172.393C0.583008 173.601 1.56249 174.581 2.77074 174.581Z" fill="black"/>
<path d="M23.7737 174.581C24.9819 174.581 25.9614 173.601 25.9614 172.393C25.9614 171.185 24.9819 170.205 23.7737 170.205C22.5654 170.205 21.5859 171.185 21.5859 172.393C21.5859 173.601 22.5654 174.581 23.7737 174.581Z" fill="black"/>
<path d="M44.7746 174.581C45.9829 174.581 46.9624 173.601 46.9624 172.393C46.9624 171.185 45.9829 170.205 44.7746 170.205C43.5664 170.205 42.5869 171.185 42.5869 172.393C42.5869 173.601 43.5664 174.581 44.7746 174.581Z" fill="black"/>
<path d="M65.7776 174.581C66.9858 174.581 67.9653 173.601 67.9653 172.393C67.9653 171.185 66.9858 170.205 65.7776 170.205C64.5693 170.205 63.5898 171.185 63.5898 172.393C63.5898 173.601 64.5693 174.581 65.7776 174.581Z" fill="black"/>
<path d="M86.7795 174.581C87.9878 174.581 88.9673 173.601 88.9673 172.393C88.9673 171.185 87.9878 170.205 86.7795 170.205C85.5713 170.205 84.5918 171.185 84.5918 172.393C84.5918 173.601 85.5713 174.581 86.7795 174.581Z" fill="black"/>
<path d="M107.782 174.581C108.991 174.581 109.97 173.601 109.97 172.393C109.97 171.185 108.991 170.205 107.782 170.205C106.574 170.205 105.595 171.185 105.595 172.393C105.595 173.601 106.574 174.581 107.782 174.581Z" fill="black"/>
<path d="M128.784 174.581C129.993 174.581 130.972 173.601 130.972 172.393C130.972 171.185 129.993 170.205 128.784 170.205C127.576 170.205 126.597 171.185 126.597 172.393C126.597 173.601 127.576 174.581 128.784 174.581Z" fill="black"/>
<path d="M149.785 174.581C150.994 174.581 151.973 173.601 151.973 172.393C151.973 171.185 150.994 170.205 149.785 170.205C148.577 170.205 147.598 171.185 147.598 172.393C147.598 173.601 148.577 174.581 149.785 174.581Z" fill="black"/>
<path d="M170.788 174.581C171.997 174.581 172.976 173.601 172.976 172.393C172.976 171.185 171.997 170.205 170.788 170.205C169.58 170.205 168.601 171.185 168.601 172.393C168.601 173.601 169.58 174.581 170.788 174.581Z" fill="black"/>
<path d="M191.79 174.581C192.999 174.581 193.978 173.601 193.978 172.393C193.978 171.185 192.999 170.205 191.79 170.205C190.582 170.205 189.603 171.185 189.603 172.393C189.603 173.601 190.582 174.581 191.79 174.581Z" fill="black"/>
<path d="M212.793 174.581C214.001 174.581 214.981 173.601 214.981 172.393C214.981 171.185 214.001 170.205 212.793 170.205C211.585 170.205 210.605 171.185 210.605 172.393C210.605 173.601 211.585 174.581 212.793 174.581Z" fill="black"/>
<path d="M233.796 174.581C235.004 174.581 235.984 173.601 235.984 172.393C235.984 171.185 235.004 170.205 233.796 170.205C232.588 170.205 231.608 171.185 231.608 172.393C231.608 173.601 232.588 174.581 233.796 174.581Z" fill="black"/>
<path d="M254.797 174.581C256.005 174.581 256.985 173.601 256.985 172.393C256.985 171.185 256.005 170.205 254.797 170.205C253.589 170.205 252.609 171.185 252.609 172.393C252.609 173.601 253.589 174.581 254.797 174.581Z" fill="black"/>
<path d="M275.8 174.581C277.008 174.581 277.988 173.601 277.988 172.393C277.988 171.185 277.008 170.205 275.8 170.205C274.592 170.205 273.612 171.185 273.612 172.393C273.612 173.601 274.592 174.581 275.8 174.581Z" fill="black"/>
<path d="M296.801 174.581C298.009 174.581 298.989 173.601 298.989 172.393C298.989 171.185 298.009 170.205 296.801 170.205C295.593 170.205 294.613 171.185 294.613 172.393C294.613 173.601 295.593 174.581 296.801 174.581Z" fill="black"/>
<path d="M317.804 174.581C319.012 174.581 319.992 173.601 319.992 172.393C319.992 171.185 319.012 170.205 317.804 170.205C316.596 170.205 315.616 171.185 315.616 172.393C315.616 173.601 316.596 174.581 317.804 174.581Z" fill="black"/>
<path d="M338.807 174.581C340.015 174.581 340.995 173.601 340.995 172.393C340.995 171.185 340.015 170.205 338.807 170.205C337.599 170.205 336.619 171.185 336.619 172.393C336.619 173.601 337.599 174.581 338.807 174.581Z" fill="black"/>
<path d="M359.808 174.581C361.016 174.581 361.996 173.601 361.996 172.393C361.996 171.185 361.016 170.205 359.808 170.205C358.6 170.205 357.62 171.185 357.62 172.393C357.62 173.601 358.6 174.581 359.808 174.581Z" fill="black"/>
<path d="M380.811 174.581C382.019 174.581 382.999 173.601 382.999 172.393C382.999 171.185 382.019 170.205 380.811 170.205C379.603 170.205 378.623 171.185 378.623 172.393C378.623 173.601 379.603 174.581 380.811 174.581Z" fill="black"/>
<path d="M401.812 174.581C403.02 174.581 403.999 173.601 403.999 172.393C403.999 171.185 403.02 170.205 401.812 170.205C400.604 170.205 399.624 171.185 399.624 172.393C399.624 173.601 400.604 174.581 401.812 174.581Z" fill="black"/>
<path d="M4.95847 196.75C4.95847 197.917 3.93753 198.937 2.77074 198.937C1.60395 198.937 0.583008 197.917 0.583008 196.75C0.583008 195.583 1.60395 194.562 2.77074 194.562C4.08337 194.562 4.95847 195.583 4.95847 196.75Z" fill="black"/>
<path d="M25.9614 196.75C25.9614 197.917 24.9405 198.937 23.7737 198.937C22.6069 198.937 21.5859 197.917 21.5859 196.75C21.5859 195.583 22.6069 194.562 23.7737 194.562C25.0863 194.562 25.9614 195.583 25.9614 196.75Z" fill="black"/>
<path d="M46.9624 196.75C46.9624 197.917 45.9414 198.937 44.7746 198.937C43.6079 198.937 42.5869 197.917 42.5869 196.75C42.5869 195.583 43.6079 194.562 44.7746 194.562C46.0873 194.562 46.9624 195.583 46.9624 196.75Z" fill="black"/>
<path d="M67.9653 196.75C67.9653 197.917 66.9444 198.937 65.7776 198.937C64.6108 198.937 63.5898 197.917 63.5898 196.75C63.5898 195.583 64.6108 194.562 65.7776 194.562C67.0902 194.562 67.9653 195.583 67.9653 196.75Z" fill="black"/>
<path d="M88.9673 196.75C88.9673 197.917 87.9463 198.937 86.7795 198.937C85.6127 198.937 84.5918 197.917 84.5918 196.75C84.5918 195.583 85.6127 194.562 86.7795 194.562C88.0922 194.562 88.9673 195.583 88.9673 196.75Z" fill="black"/>
<path d="M109.97 196.75C109.97 197.917 108.949 198.937 107.782 198.937C106.616 198.937 105.595 197.917 105.595 196.75C105.595 195.583 106.616 194.562 107.782 194.562C109.095 194.562 109.97 195.583 109.97 196.75Z" fill="black"/>
<path d="M130.972 196.75C130.972 197.917 129.951 198.937 128.784 198.937C127.618 198.937 126.597 197.917 126.597 196.75C126.597 195.583 127.618 194.562 128.784 194.562C130.097 194.562 130.972 195.583 130.972 196.75Z" fill="black"/>
<path d="M151.973 196.75C151.973 197.917 150.952 198.937 149.785 198.937C148.619 198.937 147.598 197.917 147.598 196.75C147.598 195.583 148.619 194.562 149.785 194.562C151.098 194.562 151.973 195.583 151.973 196.75Z" fill="black"/>
<path d="M172.976 196.75C172.976 197.917 171.955 198.937 170.788 198.937C169.622 198.937 168.601 197.917 168.601 196.75C168.601 195.583 169.622 194.562 170.788 194.562C172.101 194.562 172.976 195.583 172.976 196.75Z" fill="black"/>
<path d="M193.978 196.75C193.978 197.917 192.957 198.937 191.79 198.937C190.623 198.937 189.603 197.917 189.603 196.75C189.603 195.583 190.623 194.562 191.79 194.562C193.103 194.562 193.978 195.583 193.978 196.75Z" fill="black"/>
<path d="M214.981 196.75C214.981 197.917 213.96 198.937 212.793 198.937C211.626 198.937 210.605 197.917 210.605 196.75C210.605 195.583 211.626 194.562 212.793 194.562C214.106 194.562 214.981 195.583 214.981 196.75Z" fill="black"/>
<path d="M235.984 196.75C235.984 197.917 234.963 198.937 233.796 198.937C232.629 198.937 231.608 197.917 231.608 196.75C231.608 195.583 232.629 194.562 233.796 194.562C235.109 194.562 235.984 195.583 235.984 196.75Z" fill="black"/>
<path d="M256.985 196.75C256.985 197.917 255.964 198.937 254.797 198.937C253.63 198.937 252.609 197.917 252.609 196.75C252.609 195.583 253.63 194.562 254.797 194.562C256.11 194.562 256.985 195.583 256.985 196.75Z" fill="black"/>
<path d="M277.988 196.75C277.988 197.917 276.967 198.937 275.8 198.937C274.633 198.937 273.612 197.917 273.612 196.75C273.612 195.583 274.633 194.562 275.8 194.562C277.113 194.562 277.988 195.583 277.988 196.75Z" fill="black"/>
<path d="M298.989 196.75C298.989 197.917 297.968 198.937 296.801 198.937C295.634 198.937 294.613 197.917 294.613 196.75C294.613 195.583 295.634 194.562 296.801 194.562C298.114 194.562 298.989 195.583 298.989 196.75Z" fill="black"/>
<path d="M319.992 196.75C319.992 197.917 318.971 198.937 317.804 198.937C316.637 198.937 315.616 197.917 315.616 196.75C315.616 195.583 316.637 194.562 317.804 194.562C319.117 194.562 319.992 195.583 319.992 196.75Z" fill="black"/>
<path d="M340.995 196.75C340.995 197.917 339.974 198.937 338.807 198.937C337.64 198.937 336.619 197.917 336.619 196.75C336.619 195.583 337.64 194.562 338.807 194.562C340.12 194.562 340.995 195.583 340.995 196.75Z" fill="black"/>
<path d="M361.996 196.75C361.996 197.917 360.975 198.937 359.808 198.937C358.641 198.937 357.62 197.917 357.62 196.75C357.62 195.583 358.641 194.562 359.808 194.562C361.12 194.562 361.996 195.583 361.996 196.75Z" fill="black"/>
<path d="M382.999 196.75C382.999 197.917 381.978 198.937 380.811 198.937C379.644 198.937 378.623 197.917 378.623 196.75C378.623 195.583 379.644 194.562 380.811 194.562C382.123 194.562 382.999 195.583 382.999 196.75Z" fill="black"/>
<path d="M403.999 196.75C403.999 197.917 402.979 198.937 401.812 198.937C400.645 198.937 399.624 197.917 399.624 196.75C399.624 195.583 400.645 194.562 401.812 194.562C403.124 194.562 403.999 195.583 403.999 196.75Z" fill="black"/>
<path d="M2.77074 223.294C3.97899 223.294 4.95847 222.315 4.95847 221.106C4.95847 219.898 3.97899 218.919 2.77074 218.919C1.56249 218.919 0.583008 219.898 0.583008 221.106C0.583008 222.315 1.56249 223.294 2.77074 223.294Z" fill="black"/>
<path d="M23.7737 223.294C24.9819 223.294 25.9614 222.315 25.9614 221.106C25.9614 219.898 24.9819 218.919 23.7737 218.919C22.5654 218.919 21.5859 219.898 21.5859 221.106C21.5859 222.315 22.5654 223.294 23.7737 223.294Z" fill="black"/>
<path d="M44.7746 223.294C45.9829 223.294 46.9624 222.315 46.9624 221.106C46.9624 219.898 45.9829 218.919 44.7746 218.919C43.5664 218.919 42.5869 219.898 42.5869 221.106C42.5869 222.315 43.5664 223.294 44.7746 223.294Z" fill="black"/>
<path d="M65.7776 223.294C66.9858 223.294 67.9653 222.315 67.9653 221.106C67.9653 219.898 66.9858 218.919 65.7776 218.919C64.5693 218.919 63.5898 219.898 63.5898 221.106C63.5898 222.315 64.5693 223.294 65.7776 223.294Z" fill="black"/>
<path d="M86.7795 223.294C87.9878 223.294 88.9673 222.315 88.9673 221.106C88.9673 219.898 87.9878 218.919 86.7795 218.919C85.5713 218.919 84.5918 219.898 84.5918 221.106C84.5918 222.315 85.5713 223.294 86.7795 223.294Z" fill="black"/>
<path d="M107.782 223.294C108.991 223.294 109.97 222.315 109.97 221.106C109.97 219.898 108.991 218.919 107.782 218.919C106.574 218.919 105.595 219.898 105.595 221.106C105.595 222.315 106.574 223.294 107.782 223.294Z" fill="black"/>
<path d="M128.784 223.294C129.993 223.294 130.972 222.315 130.972 221.106C130.972 219.898 129.993 218.919 128.784 218.919C127.576 218.919 126.597 219.898 126.597 221.106C126.597 222.315 127.576 223.294 128.784 223.294Z" fill="black"/>
<path d="M149.785 223.294C150.994 223.294 151.973 222.315 151.973 221.106C151.973 219.898 150.994 218.919 149.785 218.919C148.577 218.919 147.598 219.898 147.598 221.106C147.598 222.315 148.577 223.294 149.785 223.294Z" fill="black"/>
<path d="M170.788 223.294C171.997 223.294 172.976 222.315 172.976 221.106C172.976 219.898 171.997 218.919 170.788 218.919C169.58 218.919 168.601 219.898 168.601 221.106C168.601 222.315 169.58 223.294 170.788 223.294Z" fill="black"/>
<path d="M191.79 223.294C192.999 223.294 193.978 222.315 193.978 221.106C193.978 219.898 192.999 218.919 191.79 218.919C190.582 218.919 189.603 219.898 189.603 221.106C189.603 222.315 190.582 223.294 191.79 223.294Z" fill="black"/>
<path d="M212.793 223.294C214.001 223.294 214.981 222.315 214.981 221.106C214.981 219.898 214.001 218.919 212.793 218.919C211.585 218.919 210.605 219.898 210.605 221.106C210.605 222.315 211.585 223.294 212.793 223.294Z" fill="black"/>
<path d="M233.796 223.294C235.004 223.294 235.984 222.315 235.984 221.106C235.984 219.898 235.004 218.919 233.796 218.919C232.588 218.919 231.608 219.898 231.608 221.106C231.608 222.315 232.588 223.294 233.796 223.294Z" fill="black"/>
<path d="M254.797 223.294C256.005 223.294 256.985 222.315 256.985 221.106C256.985 219.898 256.005 218.919 254.797 218.919C253.589 218.919 252.609 219.898 252.609 221.106C252.609 222.315 253.589 223.294 254.797 223.294Z" fill="black"/>
<path d="M275.8 223.294C277.008 223.294 277.988 222.315 277.988 221.106C277.988 219.898 277.008 218.919 275.8 218.919C274.592 218.919 273.612 219.898 273.612 221.106C273.612 222.315 274.592 223.294 275.8 223.294Z" fill="black"/>
<path d="M296.801 223.294C298.009 223.294 298.989 222.315 298.989 221.106C298.989 219.898 298.009 218.919 296.801 218.919C295.593 218.919 294.613 219.898 294.613 221.106C294.613 222.315 295.593 223.294 296.801 223.294Z" fill="black"/>
<path d="M317.804 223.294C319.012 223.294 319.992 222.315 319.992 221.106C319.992 219.898 319.012 218.919 317.804 218.919C316.596 218.919 315.616 219.898 315.616 221.106C315.616 222.315 316.596 223.294 317.804 223.294Z" fill="black"/>
<path d="M338.807 223.294C340.015 223.294 340.995 222.315 340.995 221.106C340.995 219.898 340.015 218.919 338.807 218.919C337.599 218.919 336.619 219.898 336.619 221.106C336.619 222.315 337.599 223.294 338.807 223.294Z" fill="black"/>
<path d="M359.808 223.294C361.016 223.294 361.996 222.315 361.996 221.106C361.996 219.898 361.016 218.919 359.808 218.919C358.6 218.919 357.62 219.898 357.62 221.106C357.62 222.315 358.6 223.294 359.808 223.294Z" fill="black"/>
<path d="M380.811 223.294C382.019 223.294 382.999 222.315 382.999 221.106C382.999 219.898 382.019 218.919 380.811 218.919C379.603 218.919 378.623 219.898 378.623 221.106C378.623 222.315 379.603 223.294 380.811 223.294Z" fill="black"/>
<path d="M401.812 223.294C403.02 223.294 403.999 222.315 403.999 221.106C403.999 219.898 403.02 218.919 401.812 218.919C400.604 218.919 399.624 219.898 399.624 221.106C399.624 222.315 400.604 223.294 401.812 223.294Z" fill="black"/>
</svg>
