<svg width="404" height="224" viewBox="0 0 404 224" fill="none" xmlns="http://www.w3.org/2000/svg">
<path d="M4.37546 2.65721C4.37546 3.824 3.35452 4.84494 2.18773 4.84494C1.02094 4.84494 0 3.824 0 2.65721C0 1.49042 1.02094 0.469482 2.18773 0.469482C3.35452 0.469482 4.37546 1.49042 4.37546 2.65721Z" fill="white"/>
<path d="M25.3784 2.65721C25.3784 3.824 24.3574 4.84494 23.1907 4.84494C22.0239 4.84494 21.0029 3.824 21.0029 2.65721C21.0029 1.49042 22.0239 0.469482 23.1907 0.469482C24.3574 0.469482 25.3784 1.49042 25.3784 2.65721Z" fill="white"/>
<path d="M46.3794 2.65721C46.3794 3.824 45.3584 4.84494 44.1916 4.84494C43.0248 4.84494 42.0039 3.824 42.0039 2.65721C42.0039 1.49042 43.0248 0.469482 44.1916 0.469482C45.3584 0.469482 46.3794 1.49042 46.3794 2.65721Z" fill="white"/>
<path d="M67.3823 2.65721C67.3823 3.824 66.3614 4.84494 65.1946 4.84494C64.0278 4.84494 63.0068 3.824 63.0068 2.65721C63.0068 1.49042 64.0278 0.469482 65.1946 0.469482C66.3614 0.469482 67.3823 1.49042 67.3823 2.65721Z" fill="white"/>
<path d="M88.3842 2.65721C88.3842 3.824 87.3633 4.84494 86.1965 4.84494C85.0297 4.84494 84.0088 3.824 84.0088 2.65721C84.0088 1.49042 85.0297 0.469482 86.1965 0.469482C87.3633 0.469482 88.3842 1.49042 88.3842 2.65721Z" fill="white"/>
<path d="M109.387 2.65721C109.387 3.824 108.366 4.84494 107.199 4.84494C106.033 4.84494 105.012 3.824 105.012 2.65721C105.012 1.49042 106.033 0.469482 107.199 0.469482C108.366 0.469482 109.387 1.49042 109.387 2.65721Z" fill="white"/>
<path d="M130.389 2.65721C130.389 3.824 129.368 4.84494 128.201 4.84494C127.035 4.84494 126.014 3.824 126.014 2.65721C126.014 1.49042 127.035 0.469482 128.201 0.469482C129.368 0.469482 130.389 1.49042 130.389 2.65721Z" fill="white"/>
<path d="M151.39 2.65721C151.39 3.824 150.369 4.84494 149.202 4.84494C148.036 4.84494 147.015 3.824 147.015 2.65721C147.015 1.49042 148.036 0.469482 149.202 0.469482C150.369 0.469482 151.39 1.49042 151.39 2.65721Z" fill="white"/>
<path d="M172.393 2.65721C172.393 3.824 171.372 4.84494 170.205 4.84494C169.039 4.84494 168.018 3.824 168.018 2.65721C168.018 1.49042 169.039 0.469482 170.205 0.469482C171.372 0.469482 172.393 1.49042 172.393 2.65721Z" fill="white"/>
<path d="M193.394 2.65721C193.394 3.824 192.373 4.84494 191.206 4.84494C190.039 4.84494 189.019 3.824 189.019 2.65721C189.019 1.49042 190.039 0.469482 191.206 0.469482C192.373 0.469482 193.394 1.49042 193.394 2.65721Z" fill="white"/>
<path d="M214.397 2.65721C214.397 3.824 213.376 4.84494 212.209 4.84494C211.042 4.84494 210.021 3.824 210.021 2.65721C210.021 1.49042 211.042 0.469482 212.209 0.469482C213.376 0.469482 214.397 1.49042 214.397 2.65721Z" fill="white"/>
<path d="M235.4 2.65721C235.4 3.824 234.379 4.84494 233.212 4.84494C232.045 4.84494 231.024 3.824 231.024 2.65721C231.024 1.49042 232.045 0.469482 233.212 0.469482C234.379 0.469482 235.4 1.49042 235.4 2.65721Z" fill="white"/>
<path d="M256.402 2.65721C256.402 3.824 255.381 4.84494 254.214 4.84494C253.047 4.84494 252.026 3.824 252.026 2.65721C252.026 1.49042 253.047 0.469482 254.214 0.469482C255.381 0.469482 256.402 1.49042 256.402 2.65721Z" fill="white"/>
<path d="M277.405 2.65721C277.405 3.824 276.384 4.84494 275.217 4.84494C274.05 4.84494 273.029 3.824 273.029 2.65721C273.029 1.49042 274.05 0.469482 275.217 0.469482C276.384 0.469482 277.405 1.49042 277.405 2.65721Z" fill="white"/>
<path d="M298.406 2.65721C298.406 3.824 297.385 4.84494 296.218 4.84494C295.051 4.84494 294.03 3.824 294.03 2.65721C294.03 1.49042 295.051 0.469482 296.218 0.469482C297.385 0.469482 298.406 1.49042 298.406 2.65721Z" fill="white"/>
<path d="M319.409 2.65721C319.409 3.824 318.388 4.84494 317.221 4.84494C316.054 4.84494 315.033 3.824 315.033 2.65721C315.033 1.49042 316.054 0.469482 317.221 0.469482C318.388 0.469482 319.409 1.49042 319.409 2.65721Z" fill="white"/>
<path d="M340.411 2.65721C340.411 3.824 339.39 4.84494 338.223 4.84494C337.056 4.84494 336.035 3.824 336.035 2.65721C336.035 1.49042 337.056 0.469482 338.223 0.469482C339.39 0.469482 340.411 1.49042 340.411 2.65721Z" fill="white"/>
<path d="M361.413 2.65721C361.413 3.824 360.392 4.84494 359.225 4.84494C358.058 4.84494 357.037 3.824 357.037 2.65721C357.037 1.49042 358.058 0.469482 359.225 0.469482C360.392 0.469482 361.413 1.49042 361.413 2.65721Z" fill="white"/>
<path d="M382.415 2.65721C382.415 3.824 381.395 4.84494 380.228 4.84494C379.061 4.84494 378.04 3.824 378.04 2.65721C378.04 1.49042 379.061 0.469482 380.228 0.469482C381.395 0.469482 382.415 1.49042 382.415 2.65721Z" fill="white"/>
<path d="M403.416 2.65721C403.416 3.824 402.396 4.84494 401.229 4.84494C400.062 4.84494 399.041 3.824 399.041 2.65721C399.041 1.49042 400.062 0.469482 401.229 0.469482C402.396 0.469482 403.416 1.49042 403.416 2.65721Z" fill="white"/>
<path d="M2.18773 29.2016C3.39598 29.2016 4.37546 28.2222 4.37546 27.0139C4.37546 25.8057 3.39598 24.8262 2.18773 24.8262C0.97948 24.8262 0 25.8057 0 27.0139C0 28.2222 0.97948 29.2016 2.18773 29.2016Z" fill="white"/>
<path d="M23.1907 29.2016C24.3989 29.2016 25.3784 28.2222 25.3784 27.0139C25.3784 25.8057 24.3989 24.8262 23.1907 24.8262C21.9824 24.8262 21.0029 25.8057 21.0029 27.0139C21.0029 28.2222 21.9824 29.2016 23.1907 29.2016Z" fill="white"/>
<path d="M44.1916 29.2016C45.3999 29.2016 46.3794 28.2222 46.3794 27.0139C46.3794 25.8057 45.3999 24.8262 44.1916 24.8262C42.9834 24.8262 42.0039 25.8057 42.0039 27.0139C42.0039 28.2222 42.9834 29.2016 44.1916 29.2016Z" fill="white"/>
<path d="M65.1946 29.2016C66.4028 29.2016 67.3823 28.2222 67.3823 27.0139C67.3823 25.8057 66.4028 24.8262 65.1946 24.8262C63.9863 24.8262 63.0068 25.8057 63.0068 27.0139C63.0068 28.2222 63.9863 29.2016 65.1946 29.2016Z" fill="white"/>
<path d="M86.1965 29.2016C87.4048 29.2016 88.3842 28.2222 88.3842 27.0139C88.3842 25.8057 87.4048 24.8262 86.1965 24.8262C84.9883 24.8262 84.0088 25.8057 84.0088 27.0139C84.0088 28.2222 84.9883 29.2016 86.1965 29.2016Z" fill="white"/>
<path d="M107.199 29.2016C108.408 29.2016 109.387 28.2222 109.387 27.0139C109.387 25.8057 108.408 24.8262 107.199 24.8262C105.991 24.8262 105.012 25.8057 105.012 27.0139C105.012 28.2222 105.991 29.2016 107.199 29.2016Z" fill="white"/>
<path d="M128.201 29.2016C129.41 29.2016 130.389 28.2222 130.389 27.0139C130.389 25.8057 129.41 24.8262 128.201 24.8262C126.993 24.8262 126.014 25.8057 126.014 27.0139C126.014 28.2222 126.993 29.2016 128.201 29.2016Z" fill="white"/>
<path d="M149.202 29.2016C150.411 29.2016 151.39 28.2222 151.39 27.0139C151.39 25.8057 150.411 24.8262 149.202 24.8262C147.994 24.8262 147.015 25.8057 147.015 27.0139C147.015 28.2222 147.994 29.2016 149.202 29.2016Z" fill="white"/>
<path d="M170.205 29.2016C171.414 29.2016 172.393 28.2222 172.393 27.0139C172.393 25.8057 171.414 24.8262 170.205 24.8262C168.997 24.8262 168.018 25.8057 168.018 27.0139C168.018 28.2222 168.997 29.2016 170.205 29.2016Z" fill="white"/>
<path d="M191.206 29.2016C192.415 29.2016 193.394 28.2222 193.394 27.0139C193.394 25.8057 192.415 24.8262 191.206 24.8262C189.998 24.8262 189.019 25.8057 189.019 27.0139C189.019 28.2222 189.998 29.2016 191.206 29.2016Z" fill="white"/>
<path d="M212.209 29.2016C213.417 29.2016 214.397 28.2222 214.397 27.0139C214.397 25.8057 213.417 24.8262 212.209 24.8262C211.001 24.8262 210.021 25.8057 210.021 27.0139C210.021 28.2222 211.001 29.2016 212.209 29.2016Z" fill="white"/>
<path d="M233.212 29.2016C234.42 29.2016 235.4 28.2222 235.4 27.0139C235.4 25.8057 234.42 24.8262 233.212 24.8262C232.004 24.8262 231.024 25.8057 231.024 27.0139C231.024 28.2222 232.004 29.2016 233.212 29.2016Z" fill="white"/>
<path d="M254.214 29.2016C255.422 29.2016 256.402 28.2222 256.402 27.0139C256.402 25.8057 255.422 24.8262 254.214 24.8262C253.006 24.8262 252.026 25.8057 252.026 27.0139C252.026 28.2222 253.006 29.2016 254.214 29.2016Z" fill="white"/>
<path d="M275.217 29.2016C276.425 29.2016 277.405 28.2222 277.405 27.0139C277.405 25.8057 276.425 24.8262 275.217 24.8262C274.009 24.8262 273.029 25.8057 273.029 27.0139C273.029 28.2222 274.009 29.2016 275.217 29.2016Z" fill="white"/>
<path d="M296.218 29.2016C297.426 29.2016 298.406 28.2222 298.406 27.0139C298.406 25.8057 297.426 24.8262 296.218 24.8262C295.01 24.8262 294.03 25.8057 294.03 27.0139C294.03 28.2222 295.01 29.2016 296.218 29.2016Z" fill="white"/>
<path d="M317.221 29.2016C318.429 29.2016 319.409 28.2222 319.409 27.0139C319.409 25.8057 318.429 24.8262 317.221 24.8262C316.013 24.8262 315.033 25.8057 315.033 27.0139C315.033 28.2222 316.013 29.2016 317.221 29.2016Z" fill="white"/>
<path d="M338.223 29.2016C339.431 29.2016 340.411 28.2222 340.411 27.0139C340.411 25.8057 339.431 24.8262 338.223 24.8262C337.015 24.8262 336.035 25.8057 336.035 27.0139C336.035 28.2222 337.015 29.2016 338.223 29.2016Z" fill="white"/>
<path d="M359.225 29.2016C360.433 29.2016 361.413 28.2222 361.413 27.0139C361.413 25.8057 360.433 24.8262 359.225 24.8262C358.017 24.8262 357.037 25.8057 357.037 27.0139C357.037 28.2222 358.017 29.2016 359.225 29.2016Z" fill="white"/>
<path d="M380.228 29.2016C381.436 29.2016 382.415 28.2222 382.415 27.0139C382.415 25.8057 381.436 24.8262 380.228 24.8262C379.02 24.8262 378.04 25.8057 378.04 27.0139C378.04 28.2222 379.02 29.2016 380.228 29.2016Z" fill="white"/>
<path d="M401.229 29.2016C402.437 29.2016 403.416 28.2222 403.416 27.0139C403.416 25.8057 402.437 24.8262 401.229 24.8262C400.02 24.8262 399.041 25.8057 399.041 27.0139C399.041 28.2222 400.02 29.2016 401.229 29.2016Z" fill="white"/>
<path d="M2.18773 53.4126C3.39598 53.4126 4.37546 52.4331 4.37546 51.2248C4.37546 50.0166 3.39598 49.0371 2.18773 49.0371C0.97948 49.0371 0 50.0166 0 51.2248C0 52.4331 0.97948 53.4126 2.18773 53.4126Z" fill="white"/>
<path d="M23.1907 53.4126C24.3989 53.4126 25.3784 52.4331 25.3784 51.2248C25.3784 50.0166 24.3989 49.0371 23.1907 49.0371C21.9824 49.0371 21.0029 50.0166 21.0029 51.2248C21.0029 52.4331 21.9824 53.4126 23.1907 53.4126Z" fill="white"/>
<path d="M44.1916 53.4126C45.3999 53.4126 46.3794 52.4331 46.3794 51.2248C46.3794 50.0166 45.3999 49.0371 44.1916 49.0371C42.9834 49.0371 42.0039 50.0166 42.0039 51.2248C42.0039 52.4331 42.9834 53.4126 44.1916 53.4126Z" fill="white"/>
<path d="M65.1946 53.4126C66.4028 53.4126 67.3823 52.4331 67.3823 51.2248C67.3823 50.0166 66.4028 49.0371 65.1946 49.0371C63.9863 49.0371 63.0068 50.0166 63.0068 51.2248C63.0068 52.4331 63.9863 53.4126 65.1946 53.4126Z" fill="white"/>
<path d="M86.1965 53.4126C87.4048 53.4126 88.3842 52.4331 88.3842 51.2248C88.3842 50.0166 87.4048 49.0371 86.1965 49.0371C84.9883 49.0371 84.0088 50.0166 84.0088 51.2248C84.0088 52.4331 84.9883 53.4126 86.1965 53.4126Z" fill="white"/>
<path d="M107.199 53.4126C108.408 53.4126 109.387 52.4331 109.387 51.2248C109.387 50.0166 108.408 49.0371 107.199 49.0371C105.991 49.0371 105.012 50.0166 105.012 51.2248C105.012 52.4331 105.991 53.4126 107.199 53.4126Z" fill="white"/>
<path d="M128.201 53.4126C129.41 53.4126 130.389 52.4331 130.389 51.2248C130.389 50.0166 129.41 49.0371 128.201 49.0371C126.993 49.0371 126.014 50.0166 126.014 51.2248C126.014 52.4331 126.993 53.4126 128.201 53.4126Z" fill="white"/>
<path d="M149.202 53.4126C150.411 53.4126 151.39 52.4331 151.39 51.2248C151.39 50.0166 150.411 49.0371 149.202 49.0371C147.994 49.0371 147.015 50.0166 147.015 51.2248C147.015 52.4331 147.994 53.4126 149.202 53.4126Z" fill="white"/>
<path d="M170.205 53.4126C171.414 53.4126 172.393 52.4331 172.393 51.2248C172.393 50.0166 171.414 49.0371 170.205 49.0371C168.997 49.0371 168.018 50.0166 168.018 51.2248C168.018 52.4331 168.997 53.4126 170.205 53.4126Z" fill="white"/>
<path d="M191.206 53.4126C192.415 53.4126 193.394 52.4331 193.394 51.2248C193.394 50.0166 192.415 49.0371 191.206 49.0371C189.998 49.0371 189.019 50.0166 189.019 51.2248C189.019 52.4331 189.998 53.4126 191.206 53.4126Z" fill="white"/>
<path d="M212.209 53.4126C213.417 53.4126 214.397 52.4331 214.397 51.2248C214.397 50.0166 213.417 49.0371 212.209 49.0371C211.001 49.0371 210.021 50.0166 210.021 51.2248C210.021 52.4331 211.001 53.4126 212.209 53.4126Z" fill="white"/>
<path d="M233.212 53.4126C234.42 53.4126 235.4 52.4331 235.4 51.2248C235.4 50.0166 234.42 49.0371 233.212 49.0371C232.004 49.0371 231.024 50.0166 231.024 51.2248C231.024 52.4331 232.004 53.4126 233.212 53.4126Z" fill="white"/>
<path d="M254.214 53.4126C255.422 53.4126 256.402 52.4331 256.402 51.2248C256.402 50.0166 255.422 49.0371 254.214 49.0371C253.006 49.0371 252.026 50.0166 252.026 51.2248C252.026 52.4331 253.006 53.4126 254.214 53.4126Z" fill="white"/>
<path d="M275.217 53.4126C276.425 53.4126 277.405 52.4331 277.405 51.2248C277.405 50.0166 276.425 49.0371 275.217 49.0371C274.009 49.0371 273.029 50.0166 273.029 51.2248C273.029 52.4331 274.009 53.4126 275.217 53.4126Z" fill="white"/>
<path d="M296.218 53.4126C297.426 53.4126 298.406 52.4331 298.406 51.2248C298.406 50.0166 297.426 49.0371 296.218 49.0371C295.01 49.0371 294.03 50.0166 294.03 51.2248C294.03 52.4331 295.01 53.4126 296.218 53.4126Z" fill="white"/>
<path d="M317.221 53.4126C318.429 53.4126 319.409 52.4331 319.409 51.2248C319.409 50.0166 318.429 49.0371 317.221 49.0371C316.013 49.0371 315.033 50.0166 315.033 51.2248C315.033 52.4331 316.013 53.4126 317.221 53.4126Z" fill="white"/>
<path d="M338.223 53.4126C339.431 53.4126 340.411 52.4331 340.411 51.2248C340.411 50.0166 339.431 49.0371 338.223 49.0371C337.015 49.0371 336.035 50.0166 336.035 51.2248C336.035 52.4331 337.015 53.4126 338.223 53.4126Z" fill="white"/>
<path d="M359.225 53.4126C360.433 53.4126 361.413 52.4331 361.413 51.2248C361.413 50.0166 360.433 49.0371 359.225 49.0371C358.017 49.0371 357.037 50.0166 357.037 51.2248C357.037 52.4331 358.017 53.4126 359.225 53.4126Z" fill="white"/>
<path d="M380.228 53.4126C381.436 53.4126 382.415 52.4331 382.415 51.2248C382.415 50.0166 381.436 49.0371 380.228 49.0371C379.02 49.0371 378.04 50.0166 378.04 51.2248C378.04 52.4331 379.02 53.4126 380.228 53.4126Z" fill="white"/>
<path d="M401.229 53.4126C402.437 53.4126 403.416 52.4331 403.416 51.2248C403.416 50.0166 402.437 49.0371 401.229 49.0371C400.02 49.0371 399.041 50.0166 399.041 51.2248C399.041 52.4331 400.02 53.4126 401.229 53.4126Z" fill="white"/>
<path d="M2.18773 77.7693C3.39598 77.7693 4.37546 76.7898 4.37546 75.5815C4.37546 74.3733 3.39598 73.3938 2.18773 73.3938C0.97948 73.3938 0 74.3733 0 75.5815C0 76.7898 0.97948 77.7693 2.18773 77.7693Z" fill="white"/>
<path d="M23.1907 77.7693C24.3989 77.7693 25.3784 76.7898 25.3784 75.5815C25.3784 74.3733 24.3989 73.3938 23.1907 73.3938C21.9824 73.3938 21.0029 74.3733 21.0029 75.5815C21.0029 76.7898 21.9824 77.7693 23.1907 77.7693Z" fill="white"/>
<path d="M44.1916 77.7693C45.3999 77.7693 46.3794 76.7898 46.3794 75.5815C46.3794 74.3733 45.3999 73.3938 44.1916 73.3938C42.9834 73.3938 42.0039 74.3733 42.0039 75.5815C42.0039 76.7898 42.9834 77.7693 44.1916 77.7693Z" fill="white"/>
<path d="M65.1946 77.7693C66.4028 77.7693 67.3823 76.7898 67.3823 75.5815C67.3823 74.3733 66.4028 73.3938 65.1946 73.3938C63.9863 73.3938 63.0068 74.3733 63.0068 75.5815C63.0068 76.7898 63.9863 77.7693 65.1946 77.7693Z" fill="white"/>
<path d="M86.1965 77.7693C87.4048 77.7693 88.3842 76.7898 88.3842 75.5815C88.3842 74.3733 87.4048 73.3938 86.1965 73.3938C84.9883 73.3938 84.0088 74.3733 84.0088 75.5815C84.0088 76.7898 84.9883 77.7693 86.1965 77.7693Z" fill="white"/>
<path d="M107.199 77.7693C108.408 77.7693 109.387 76.7898 109.387 75.5815C109.387 74.3733 108.408 73.3938 107.199 73.3938C105.991 73.3938 105.012 74.3733 105.012 75.5815C105.012 76.7898 105.991 77.7693 107.199 77.7693Z" fill="white"/>
<path d="M128.201 77.7693C129.41 77.7693 130.389 76.7898 130.389 75.5815C130.389 74.3733 129.41 73.3938 128.201 73.3938C126.993 73.3938 126.014 74.3733 126.014 75.5815C126.014 76.7898 126.993 77.7693 128.201 77.7693Z" fill="white"/>
<path d="M149.202 77.7693C150.411 77.7693 151.39 76.7898 151.39 75.5815C151.39 74.3733 150.411 73.3938 149.202 73.3938C147.994 73.3938 147.015 74.3733 147.015 75.5815C147.015 76.7898 147.994 77.7693 149.202 77.7693Z" fill="white"/>
<path d="M170.205 77.7693C171.414 77.7693 172.393 76.7898 172.393 75.5815C172.393 74.3733 171.414 73.3938 170.205 73.3938C168.997 73.3938 168.018 74.3733 168.018 75.5815C168.018 76.7898 168.997 77.7693 170.205 77.7693Z" fill="white"/>
<path d="M191.206 77.7693C192.415 77.7693 193.394 76.7898 193.394 75.5815C193.394 74.3733 192.415 73.3938 191.206 73.3938C189.998 73.3938 189.019 74.3733 189.019 75.5815C189.019 76.7898 189.998 77.7693 191.206 77.7693Z" fill="white"/>
<path d="M212.209 77.7693C213.417 77.7693 214.397 76.7898 214.397 75.5815C214.397 74.3733 213.417 73.3938 212.209 73.3938C211.001 73.3938 210.021 74.3733 210.021 75.5815C210.021 76.7898 211.001 77.7693 212.209 77.7693Z" fill="white"/>
<path d="M233.212 77.7693C234.42 77.7693 235.4 76.7898 235.4 75.5815C235.4 74.3733 234.42 73.3938 233.212 73.3938C232.004 73.3938 231.024 74.3733 231.024 75.5815C231.024 76.7898 232.004 77.7693 233.212 77.7693Z" fill="white"/>
<path d="M254.214 77.7693C255.422 77.7693 256.402 76.7898 256.402 75.5815C256.402 74.3733 255.422 73.3938 254.214 73.3938C253.006 73.3938 252.026 74.3733 252.026 75.5815C252.026 76.7898 253.006 77.7693 254.214 77.7693Z" fill="white"/>
<path d="M275.217 77.7693C276.425 77.7693 277.405 76.7898 277.405 75.5815C277.405 74.3733 276.425 73.3938 275.217 73.3938C274.009 73.3938 273.029 74.3733 273.029 75.5815C273.029 76.7898 274.009 77.7693 275.217 77.7693Z" fill="white"/>
<path d="M296.218 77.7693C297.426 77.7693 298.406 76.7898 298.406 75.5815C298.406 74.3733 297.426 73.3938 296.218 73.3938C295.01 73.3938 294.03 74.3733 294.03 75.5815C294.03 76.7898 295.01 77.7693 296.218 77.7693Z" fill="white"/>
<path d="M317.221 77.7693C318.429 77.7693 319.409 76.7898 319.409 75.5815C319.409 74.3733 318.429 73.3938 317.221 73.3938C316.013 73.3938 315.033 74.3733 315.033 75.5815C315.033 76.7898 316.013 77.7693 317.221 77.7693Z" fill="white"/>
<path d="M338.223 77.7693C339.431 77.7693 340.411 76.7898 340.411 75.5815C340.411 74.3733 339.431 73.3938 338.223 73.3938C337.015 73.3938 336.035 74.3733 336.035 75.5815C336.035 76.7898 337.015 77.7693 338.223 77.7693Z" fill="white"/>
<path d="M359.225 77.7693C360.433 77.7693 361.413 76.7898 361.413 75.5815C361.413 74.3733 360.433 73.3938 359.225 73.3938C358.017 73.3938 357.037 74.3733 357.037 75.5815C357.037 76.7898 358.017 77.7693 359.225 77.7693Z" fill="white"/>
<path d="M380.228 77.7693C381.436 77.7693 382.415 76.7898 382.415 75.5815C382.415 74.3733 381.436 73.3938 380.228 73.3938C379.02 73.3938 378.04 74.3733 378.04 75.5815C378.04 76.7898 379.02 77.7693 380.228 77.7693Z" fill="white"/>
<path d="M401.229 77.7693C402.437 77.7693 403.416 76.7898 403.416 75.5815C403.416 74.3733 402.437 73.3938 401.229 73.3938C400.02 73.3938 399.041 74.3733 399.041 75.5815C399.041 76.7898 400.02 77.7693 401.229 77.7693Z" fill="white"/>
<path d="M2.18773 102.126C3.39598 102.126 4.37546 101.146 4.37546 99.9382C4.37546 98.73 3.39598 97.7505 2.18773 97.7505C0.97948 97.7505 0 98.73 0 99.9382C0 101.146 0.97948 102.126 2.18773 102.126Z" fill="white"/>
<path d="M23.1907 102.126C24.3989 102.126 25.3784 101.146 25.3784 99.9382C25.3784 98.73 24.3989 97.7505 23.1907 97.7505C21.9824 97.7505 21.0029 98.73 21.0029 99.9382C21.0029 101.146 21.9824 102.126 23.1907 102.126Z" fill="white"/>
<path d="M44.1916 102.126C45.3999 102.126 46.3794 101.146 46.3794 99.9382C46.3794 98.73 45.3999 97.7505 44.1916 97.7505C42.9834 97.7505 42.0039 98.73 42.0039 99.9382C42.0039 101.146 42.9834 102.126 44.1916 102.126Z" fill="white"/>
<path d="M65.1946 102.126C66.4028 102.126 67.3823 101.146 67.3823 99.9382C67.3823 98.73 66.4028 97.7505 65.1946 97.7505C63.9863 97.7505 63.0068 98.73 63.0068 99.9382C63.0068 101.146 63.9863 102.126 65.1946 102.126Z" fill="white"/>
<path d="M86.1965 102.126C87.4048 102.126 88.3842 101.146 88.3842 99.9382C88.3842 98.73 87.4048 97.7505 86.1965 97.7505C84.9883 97.7505 84.0088 98.73 84.0088 99.9382C84.0088 101.146 84.9883 102.126 86.1965 102.126Z" fill="white"/>
<path d="M107.199 102.126C108.408 102.126 109.387 101.146 109.387 99.9382C109.387 98.73 108.408 97.7505 107.199 97.7505C105.991 97.7505 105.012 98.73 105.012 99.9382C105.012 101.146 105.991 102.126 107.199 102.126Z" fill="white"/>
<path d="M128.201 102.126C129.41 102.126 130.389 101.146 130.389 99.9382C130.389 98.73 129.41 97.7505 128.201 97.7505C126.993 97.7505 126.014 98.73 126.014 99.9382C126.014 101.146 126.993 102.126 128.201 102.126Z" fill="white"/>
<path d="M149.202 102.126C150.411 102.126 151.39 101.146 151.39 99.9382C151.39 98.73 150.411 97.7505 149.202 97.7505C147.994 97.7505 147.015 98.73 147.015 99.9382C147.015 101.146 147.994 102.126 149.202 102.126Z" fill="white"/>
<path d="M170.205 102.126C171.414 102.126 172.393 101.146 172.393 99.9382C172.393 98.73 171.414 97.7505 170.205 97.7505C168.997 97.7505 168.018 98.73 168.018 99.9382C168.018 101.146 168.997 102.126 170.205 102.126Z" fill="white"/>
<path d="M191.206 102.126C192.415 102.126 193.394 101.146 193.394 99.9382C193.394 98.73 192.415 97.7505 191.206 97.7505C189.998 97.7505 189.019 98.73 189.019 99.9382C189.019 101.146 189.998 102.126 191.206 102.126Z" fill="white"/>
<path d="M212.209 102.126C213.417 102.126 214.397 101.146 214.397 99.9382C214.397 98.73 213.417 97.7505 212.209 97.7505C211.001 97.7505 210.021 98.73 210.021 99.9382C210.021 101.146 211.001 102.126 212.209 102.126Z" fill="white"/>
<path d="M233.212 102.126C234.42 102.126 235.4 101.146 235.4 99.9382C235.4 98.73 234.42 97.7505 233.212 97.7505C232.004 97.7505 231.024 98.73 231.024 99.9382C231.024 101.146 232.004 102.126 233.212 102.126Z" fill="white"/>
<path d="M254.214 102.126C255.422 102.126 256.402 101.146 256.402 99.9382C256.402 98.73 255.422 97.7505 254.214 97.7505C253.006 97.7505 252.026 98.73 252.026 99.9382C252.026 101.146 253.006 102.126 254.214 102.126Z" fill="white"/>
<path d="M275.217 102.126C276.425 102.126 277.405 101.146 277.405 99.9382C277.405 98.73 276.425 97.7505 275.217 97.7505C274.009 97.7505 273.029 98.73 273.029 99.9382C273.029 101.146 274.009 102.126 275.217 102.126Z" fill="white"/>
<path d="M296.218 102.126C297.426 102.126 298.406 101.146 298.406 99.9382C298.406 98.73 297.426 97.7505 296.218 97.7505C295.01 97.7505 294.03 98.73 294.03 99.9382C294.03 101.146 295.01 102.126 296.218 102.126Z" fill="white"/>
<path d="M317.221 102.126C318.429 102.126 319.409 101.146 319.409 99.9382C319.409 98.73 318.429 97.7505 317.221 97.7505C316.013 97.7505 315.033 98.73 315.033 99.9382C315.033 101.146 316.013 102.126 317.221 102.126Z" fill="white"/>
<path d="M338.223 102.126C339.431 102.126 340.411 101.146 340.411 99.9382C340.411 98.73 339.431 97.7505 338.223 97.7505C337.015 97.7505 336.035 98.73 336.035 99.9382C336.035 101.146 337.015 102.126 338.223 102.126Z" fill="white"/>
<path d="M359.225 102.126C360.433 102.126 361.413 101.146 361.413 99.9382C361.413 98.73 360.433 97.7505 359.225 97.7505C358.017 97.7505 357.037 98.73 357.037 99.9382C357.037 101.146 358.017 102.126 359.225 102.126Z" fill="white"/>
<path d="M380.228 102.126C381.436 102.126 382.415 101.146 382.415 99.9382C382.415 98.73 381.436 97.7505 380.228 97.7505C379.02 97.7505 378.04 98.73 378.04 99.9382C378.04 101.146 379.02 102.126 380.228 102.126Z" fill="white"/>
<path d="M401.229 102.126C402.437 102.126 403.416 101.146 403.416 99.9382C403.416 98.73 402.437 97.7505 401.229 97.7505C400.02 97.7505 399.041 98.73 399.041 99.9382C399.041 101.146 400.02 102.126 401.229 102.126Z" fill="white"/>
<path d="M2.18773 126.483C3.39598 126.483 4.37546 125.503 4.37546 124.295C4.37546 123.087 3.39598 122.107 2.18773 122.107C0.97948 122.107 0 123.087 0 124.295C0 125.503 0.97948 126.483 2.18773 126.483Z" fill="white"/>
<path d="M23.1907 126.483C24.3989 126.483 25.3784 125.503 25.3784 124.295C25.3784 123.087 24.3989 122.107 23.1907 122.107C21.9824 122.107 21.0029 123.087 21.0029 124.295C21.0029 125.503 21.9824 126.483 23.1907 126.483Z" fill="white"/>
<path d="M44.1916 126.483C45.3999 126.483 46.3794 125.503 46.3794 124.295C46.3794 123.087 45.3999 122.107 44.1916 122.107C42.9834 122.107 42.0039 123.087 42.0039 124.295C42.0039 125.503 42.9834 126.483 44.1916 126.483Z" fill="white"/>
<path d="M65.1946 126.483C66.4028 126.483 67.3823 125.503 67.3823 124.295C67.3823 123.087 66.4028 122.107 65.1946 122.107C63.9863 122.107 63.0068 123.087 63.0068 124.295C63.0068 125.503 63.9863 126.483 65.1946 126.483Z" fill="white"/>
<path d="M86.1965 126.483C87.4048 126.483 88.3842 125.503 88.3842 124.295C88.3842 123.087 87.4048 122.107 86.1965 122.107C84.9883 122.107 84.0088 123.087 84.0088 124.295C84.0088 125.503 84.9883 126.483 86.1965 126.483Z" fill="white"/>
<path d="M107.199 126.483C108.408 126.483 109.387 125.503 109.387 124.295C109.387 123.087 108.408 122.107 107.199 122.107C105.991 122.107 105.012 123.087 105.012 124.295C105.012 125.503 105.991 126.483 107.199 126.483Z" fill="white"/>
<path d="M128.201 126.483C129.41 126.483 130.389 125.503 130.389 124.295C130.389 123.087 129.41 122.107 128.201 122.107C126.993 122.107 126.014 123.087 126.014 124.295C126.014 125.503 126.993 126.483 128.201 126.483Z" fill="white"/>
<path d="M149.202 126.483C150.411 126.483 151.39 125.503 151.39 124.295C151.39 123.087 150.411 122.107 149.202 122.107C147.994 122.107 147.015 123.087 147.015 124.295C147.015 125.503 147.994 126.483 149.202 126.483Z" fill="white"/>
<path d="M170.205 126.483C171.414 126.483 172.393 125.503 172.393 124.295C172.393 123.087 171.414 122.107 170.205 122.107C168.997 122.107 168.018 123.087 168.018 124.295C168.018 125.503 168.997 126.483 170.205 126.483Z" fill="white"/>
<path d="M191.206 126.483C192.415 126.483 193.394 125.503 193.394 124.295C193.394 123.087 192.415 122.107 191.206 122.107C189.998 122.107 189.019 123.087 189.019 124.295C189.019 125.503 189.998 126.483 191.206 126.483Z" fill="white"/>
<path d="M212.209 126.483C213.417 126.483 214.397 125.503 214.397 124.295C214.397 123.087 213.417 122.107 212.209 122.107C211.001 122.107 210.021 123.087 210.021 124.295C210.021 125.503 211.001 126.483 212.209 126.483Z" fill="white"/>
<path d="M233.212 126.483C234.42 126.483 235.4 125.503 235.4 124.295C235.4 123.087 234.42 122.107 233.212 122.107C232.004 122.107 231.024 123.087 231.024 124.295C231.024 125.503 232.004 126.483 233.212 126.483Z" fill="white"/>
<path d="M254.214 126.483C255.422 126.483 256.402 125.503 256.402 124.295C256.402 123.087 255.422 122.107 254.214 122.107C253.006 122.107 252.026 123.087 252.026 124.295C252.026 125.503 253.006 126.483 254.214 126.483Z" fill="white"/>
<path d="M275.217 126.483C276.425 126.483 277.405 125.503 277.405 124.295C277.405 123.087 276.425 122.107 275.217 122.107C274.009 122.107 273.029 123.087 273.029 124.295C273.029 125.503 274.009 126.483 275.217 126.483Z" fill="white"/>
<path d="M296.218 126.483C297.426 126.483 298.406 125.503 298.406 124.295C298.406 123.087 297.426 122.107 296.218 122.107C295.01 122.107 294.03 123.087 294.03 124.295C294.03 125.503 295.01 126.483 296.218 126.483Z" fill="white"/>
<path d="M317.221 126.483C318.429 126.483 319.409 125.503 319.409 124.295C319.409 123.087 318.429 122.107 317.221 122.107C316.013 122.107 315.033 123.087 315.033 124.295C315.033 125.503 316.013 126.483 317.221 126.483Z" fill="white"/>
<path d="M338.223 126.483C339.431 126.483 340.411 125.503 340.411 124.295C340.411 123.087 339.431 122.107 338.223 122.107C337.015 122.107 336.035 123.087 336.035 124.295C336.035 125.503 337.015 126.483 338.223 126.483Z" fill="white"/>
<path d="M359.225 126.483C360.433 126.483 361.413 125.503 361.413 124.295C361.413 123.087 360.433 122.107 359.225 122.107C358.017 122.107 357.037 123.087 357.037 124.295C357.037 125.503 358.017 126.483 359.225 126.483Z" fill="white"/>
<path d="M380.228 126.483C381.436 126.483 382.415 125.503 382.415 124.295C382.415 123.087 381.436 122.107 380.228 122.107C379.02 122.107 378.04 123.087 378.04 124.295C378.04 125.503 379.02 126.483 380.228 126.483Z" fill="white"/>
<path d="M401.229 126.483C402.437 126.483 403.416 125.503 403.416 124.295C403.416 123.087 402.437 122.107 401.229 122.107C400.02 122.107 399.041 123.087 399.041 124.295C399.041 125.503 400.02 126.483 401.229 126.483Z" fill="white"/>
<path d="M4.37546 148.506C4.37546 149.673 3.35452 150.694 2.18773 150.694C1.02094 150.694 0 149.673 0 148.506C0 147.339 1.02094 146.318 2.18773 146.318C3.35452 146.318 4.37546 147.339 4.37546 148.506Z" fill="white"/>
<path d="M25.3784 148.506C25.3784 149.673 24.3574 150.694 23.1907 150.694C22.0239 150.694 21.0029 149.673 21.0029 148.506C21.0029 147.339 22.0239 146.318 23.1907 146.318C24.3574 146.318 25.3784 147.339 25.3784 148.506Z" fill="white"/>
<path d="M46.3794 148.506C46.3794 149.673 45.3584 150.694 44.1916 150.694C43.0248 150.694 42.0039 149.673 42.0039 148.506C42.0039 147.339 43.0248 146.318 44.1916 146.318C45.3584 146.318 46.3794 147.339 46.3794 148.506Z" fill="white"/>
<path d="M67.3823 148.506C67.3823 149.673 66.3614 150.694 65.1946 150.694C64.0278 150.694 63.0068 149.673 63.0068 148.506C63.0068 147.339 64.0278 146.318 65.1946 146.318C66.3614 146.318 67.3823 147.339 67.3823 148.506Z" fill="white"/>
<path d="M88.3842 148.506C88.3842 149.673 87.3633 150.694 86.1965 150.694C85.0297 150.694 84.0088 149.673 84.0088 148.506C84.0088 147.339 85.0297 146.318 86.1965 146.318C87.3633 146.318 88.3842 147.339 88.3842 148.506Z" fill="white"/>
<path d="M109.387 148.506C109.387 149.673 108.366 150.694 107.199 150.694C106.033 150.694 105.012 149.673 105.012 148.506C105.012 147.339 106.033 146.318 107.199 146.318C108.366 146.318 109.387 147.339 109.387 148.506Z" fill="white"/>
<path d="M130.389 148.506C130.389 149.673 129.368 150.694 128.201 150.694C127.035 150.694 126.014 149.673 126.014 148.506C126.014 147.339 127.035 146.318 128.201 146.318C129.368 146.318 130.389 147.339 130.389 148.506Z" fill="white"/>
<path d="M151.39 148.506C151.39 149.673 150.369 150.694 149.202 150.694C148.036 150.694 147.015 149.673 147.015 148.506C147.015 147.339 148.036 146.318 149.202 146.318C150.369 146.318 151.39 147.339 151.39 148.506Z" fill="white"/>
<path d="M172.393 148.506C172.393 149.673 171.372 150.694 170.205 150.694C169.039 150.694 168.018 149.673 168.018 148.506C168.018 147.339 169.039 146.318 170.205 146.318C171.372 146.318 172.393 147.339 172.393 148.506Z" fill="white"/>
<path d="M193.394 148.506C193.394 149.673 192.373 150.694 191.206 150.694C190.039 150.694 189.019 149.673 189.019 148.506C189.019 147.339 190.039 146.318 191.206 146.318C192.373 146.318 193.394 147.339 193.394 148.506Z" fill="white"/>
<path d="M214.397 148.506C214.397 149.673 213.376 150.694 212.209 150.694C211.042 150.694 210.021 149.673 210.021 148.506C210.021 147.339 211.042 146.318 212.209 146.318C213.376 146.318 214.397 147.339 214.397 148.506Z" fill="white"/>
<path d="M235.4 148.506C235.4 149.673 234.379 150.694 233.212 150.694C232.045 150.694 231.024 149.673 231.024 148.506C231.024 147.339 232.045 146.318 233.212 146.318C234.379 146.318 235.4 147.339 235.4 148.506Z" fill="white"/>
<path d="M256.402 148.506C256.402 149.673 255.381 150.694 254.214 150.694C253.047 150.694 252.026 149.673 252.026 148.506C252.026 147.339 253.047 146.318 254.214 146.318C255.381 146.318 256.402 147.339 256.402 148.506Z" fill="white"/>
<path d="M277.405 148.506C277.405 149.673 276.384 150.694 275.217 150.694C274.05 150.694 273.029 149.673 273.029 148.506C273.029 147.339 274.05 146.318 275.217 146.318C276.384 146.318 277.405 147.339 277.405 148.506Z" fill="white"/>
<path d="M298.406 148.506C298.406 149.673 297.385 150.694 296.218 150.694C295.051 150.694 294.03 149.673 294.03 148.506C294.03 147.339 295.051 146.318 296.218 146.318C297.385 146.318 298.406 147.339 298.406 148.506Z" fill="white"/>
<path d="M319.409 148.506C319.409 149.673 318.388 150.694 317.221 150.694C316.054 150.694 315.033 149.673 315.033 148.506C315.033 147.339 316.054 146.318 317.221 146.318C318.388 146.318 319.409 147.339 319.409 148.506Z" fill="white"/>
<path d="M340.411 148.506C340.411 149.673 339.39 150.694 338.223 150.694C337.056 150.694 336.035 149.673 336.035 148.506C336.035 147.339 337.056 146.318 338.223 146.318C339.39 146.318 340.411 147.339 340.411 148.506Z" fill="white"/>
<path d="M361.413 148.506C361.413 149.673 360.392 150.694 359.225 150.694C358.058 150.694 357.037 149.673 357.037 148.506C357.037 147.339 358.058 146.318 359.225 146.318C360.392 146.318 361.413 147.339 361.413 148.506Z" fill="white"/>
<path d="M382.415 148.506C382.415 149.673 381.395 150.694 380.228 150.694C379.061 150.694 378.04 149.673 378.04 148.506C378.04 147.339 379.061 146.318 380.228 146.318C381.395 146.318 382.415 147.339 382.415 148.506Z" fill="white"/>
<path d="M403.416 148.506C403.416 149.673 402.396 150.694 401.229 150.694C400.062 150.694 399.041 149.673 399.041 148.506C399.041 147.339 400.062 146.318 401.229 146.318C402.396 146.318 403.416 147.339 403.416 148.506Z" fill="white"/>
<path d="M2.18773 175.05C3.39598 175.05 4.37546 174.071 4.37546 172.863C4.37546 171.654 3.39598 170.675 2.18773 170.675C0.97948 170.675 0 171.654 0 172.863C0 174.071 0.97948 175.05 2.18773 175.05Z" fill="white"/>
<path d="M23.1907 175.05C24.3989 175.05 25.3784 174.071 25.3784 172.863C25.3784 171.654 24.3989 170.675 23.1907 170.675C21.9824 170.675 21.0029 171.654 21.0029 172.863C21.0029 174.071 21.9824 175.05 23.1907 175.05Z" fill="white"/>
<path d="M44.1916 175.05C45.3999 175.05 46.3794 174.071 46.3794 172.863C46.3794 171.654 45.3999 170.675 44.1916 170.675C42.9834 170.675 42.0039 171.654 42.0039 172.863C42.0039 174.071 42.9834 175.05 44.1916 175.05Z" fill="white"/>
<path d="M65.1946 175.05C66.4028 175.05 67.3823 174.071 67.3823 172.863C67.3823 171.654 66.4028 170.675 65.1946 170.675C63.9863 170.675 63.0068 171.654 63.0068 172.863C63.0068 174.071 63.9863 175.05 65.1946 175.05Z" fill="white"/>
<path d="M86.1965 175.05C87.4048 175.05 88.3842 174.071 88.3842 172.863C88.3842 171.654 87.4048 170.675 86.1965 170.675C84.9883 170.675 84.0088 171.654 84.0088 172.863C84.0088 174.071 84.9883 175.05 86.1965 175.05Z" fill="white"/>
<path d="M107.199 175.05C108.408 175.05 109.387 174.071 109.387 172.863C109.387 171.654 108.408 170.675 107.199 170.675C105.991 170.675 105.012 171.654 105.012 172.863C105.012 174.071 105.991 175.05 107.199 175.05Z" fill="white"/>
<path d="M128.201 175.05C129.41 175.05 130.389 174.071 130.389 172.863C130.389 171.654 129.41 170.675 128.201 170.675C126.993 170.675 126.014 171.654 126.014 172.863C126.014 174.071 126.993 175.05 128.201 175.05Z" fill="white"/>
<path d="M149.202 175.05C150.411 175.05 151.39 174.071 151.39 172.863C151.39 171.654 150.411 170.675 149.202 170.675C147.994 170.675 147.015 171.654 147.015 172.863C147.015 174.071 147.994 175.05 149.202 175.05Z" fill="white"/>
<path d="M170.205 175.05C171.414 175.05 172.393 174.071 172.393 172.863C172.393 171.654 171.414 170.675 170.205 170.675C168.997 170.675 168.018 171.654 168.018 172.863C168.018 174.071 168.997 175.05 170.205 175.05Z" fill="white"/>
<path d="M191.206 175.05C192.415 175.05 193.394 174.071 193.394 172.863C193.394 171.654 192.415 170.675 191.206 170.675C189.998 170.675 189.019 171.654 189.019 172.863C189.019 174.071 189.998 175.05 191.206 175.05Z" fill="white"/>
<path d="M212.209 175.05C213.417 175.05 214.397 174.071 214.397 172.863C214.397 171.654 213.417 170.675 212.209 170.675C211.001 170.675 210.021 171.654 210.021 172.863C210.021 174.071 211.001 175.05 212.209 175.05Z" fill="white"/>
<path d="M233.212 175.05C234.42 175.05 235.4 174.071 235.4 172.863C235.4 171.654 234.42 170.675 233.212 170.675C232.004 170.675 231.024 171.654 231.024 172.863C231.024 174.071 232.004 175.05 233.212 175.05Z" fill="white"/>
<path d="M254.214 175.05C255.422 175.05 256.402 174.071 256.402 172.863C256.402 171.654 255.422 170.675 254.214 170.675C253.006 170.675 252.026 171.654 252.026 172.863C252.026 174.071 253.006 175.05 254.214 175.05Z" fill="white"/>
<path d="M275.217 175.05C276.425 175.05 277.405 174.071 277.405 172.863C277.405 171.654 276.425 170.675 275.217 170.675C274.009 170.675 273.029 171.654 273.029 172.863C273.029 174.071 274.009 175.05 275.217 175.05Z" fill="white"/>
<path d="M296.218 175.05C297.426 175.05 298.406 174.071 298.406 172.863C298.406 171.654 297.426 170.675 296.218 170.675C295.01 170.675 294.03 171.654 294.03 172.863C294.03 174.071 295.01 175.05 296.218 175.05Z" fill="white"/>
<path d="M317.221 175.05C318.429 175.05 319.409 174.071 319.409 172.863C319.409 171.654 318.429 170.675 317.221 170.675C316.013 170.675 315.033 171.654 315.033 172.863C315.033 174.071 316.013 175.05 317.221 175.05Z" fill="white"/>
<path d="M338.223 175.05C339.431 175.05 340.411 174.071 340.411 172.863C340.411 171.654 339.431 170.675 338.223 170.675C337.015 170.675 336.035 171.654 336.035 172.863C336.035 174.071 337.015 175.05 338.223 175.05Z" fill="white"/>
<path d="M359.225 175.05C360.433 175.05 361.413 174.071 361.413 172.863C361.413 171.654 360.433 170.675 359.225 170.675C358.017 170.675 357.037 171.654 357.037 172.863C357.037 174.071 358.017 175.05 359.225 175.05Z" fill="white"/>
<path d="M380.228 175.05C381.436 175.05 382.415 174.071 382.415 172.863C382.415 171.654 381.436 170.675 380.228 170.675C379.02 170.675 378.04 171.654 378.04 172.863C378.04 174.071 379.02 175.05 380.228 175.05Z" fill="white"/>
<path d="M401.229 175.05C402.437 175.05 403.416 174.071 403.416 172.863C403.416 171.654 402.437 170.675 401.229 170.675C400.02 170.675 399.041 171.654 399.041 172.863C399.041 174.071 400.02 175.05 401.229 175.05Z" fill="white"/>
<path d="M2.18773 199.407C3.39598 199.407 4.37546 198.427 4.37546 197.219C4.37546 196.011 3.39598 195.031 2.18773 195.031C0.97948 195.031 0 196.011 0 197.219C0 198.427 0.97948 199.407 2.18773 199.407Z" fill="white"/>
<path d="M23.1907 199.407C24.3989 199.407 25.3784 198.427 25.3784 197.219C25.3784 196.011 24.3989 195.031 23.1907 195.031C21.9824 195.031 21.0029 196.011 21.0029 197.219C21.0029 198.427 21.9824 199.407 23.1907 199.407Z" fill="white"/>
<path d="M44.1916 199.407C45.3999 199.407 46.3794 198.427 46.3794 197.219C46.3794 196.011 45.3999 195.031 44.1916 195.031C42.9834 195.031 42.0039 196.011 42.0039 197.219C42.0039 198.427 42.9834 199.407 44.1916 199.407Z" fill="white"/>
<path d="M65.1946 199.407C66.4028 199.407 67.3823 198.427 67.3823 197.219C67.3823 196.011 66.4028 195.031 65.1946 195.031C63.9863 195.031 63.0068 196.011 63.0068 197.219C63.0068 198.427 63.9863 199.407 65.1946 199.407Z" fill="white"/>
<path d="M86.1965 199.407C87.4048 199.407 88.3842 198.427 88.3842 197.219C88.3842 196.011 87.4048 195.031 86.1965 195.031C84.9883 195.031 84.0088 196.011 84.0088 197.219C84.0088 198.427 84.9883 199.407 86.1965 199.407Z" fill="white"/>
<path d="M107.199 199.407C108.408 199.407 109.387 198.427 109.387 197.219C109.387 196.011 108.408 195.031 107.199 195.031C105.991 195.031 105.012 196.011 105.012 197.219C105.012 198.427 105.991 199.407 107.199 199.407Z" fill="white"/>
<path d="M128.201 199.407C129.41 199.407 130.389 198.427 130.389 197.219C130.389 196.011 129.41 195.031 128.201 195.031C126.993 195.031 126.014 196.011 126.014 197.219C126.014 198.427 126.993 199.407 128.201 199.407Z" fill="white"/>
<path d="M149.202 199.407C150.411 199.407 151.39 198.427 151.39 197.219C151.39 196.011 150.411 195.031 149.202 195.031C147.994 195.031 147.015 196.011 147.015 197.219C147.015 198.427 147.994 199.407 149.202 199.407Z" fill="white"/>
<path d="M170.205 199.407C171.414 199.407 172.393 198.427 172.393 197.219C172.393 196.011 171.414 195.031 170.205 195.031C168.997 195.031 168.018 196.011 168.018 197.219C168.018 198.427 168.997 199.407 170.205 199.407Z" fill="white"/>
<path d="M191.206 199.407C192.415 199.407 193.394 198.427 193.394 197.219C193.394 196.011 192.415 195.031 191.206 195.031C189.998 195.031 189.019 196.011 189.019 197.219C189.019 198.427 189.998 199.407 191.206 199.407Z" fill="white"/>
<path d="M212.209 199.407C213.417 199.407 214.397 198.427 214.397 197.219C214.397 196.011 213.417 195.031 212.209 195.031C211.001 195.031 210.021 196.011 210.021 197.219C210.021 198.427 211.001 199.407 212.209 199.407Z" fill="white"/>
<path d="M233.212 199.407C234.42 199.407 235.4 198.427 235.4 197.219C235.4 196.011 234.42 195.031 233.212 195.031C232.004 195.031 231.024 196.011 231.024 197.219C231.024 198.427 232.004 199.407 233.212 199.407Z" fill="white"/>
<path d="M254.214 199.407C255.422 199.407 256.402 198.427 256.402 197.219C256.402 196.011 255.422 195.031 254.214 195.031C253.006 195.031 252.026 196.011 252.026 197.219C252.026 198.427 253.006 199.407 254.214 199.407Z" fill="white"/>
<path d="M275.217 199.407C276.425 199.407 277.405 198.427 277.405 197.219C277.405 196.011 276.425 195.031 275.217 195.031C274.009 195.031 273.029 196.011 273.029 197.219C273.029 198.427 274.009 199.407 275.217 199.407Z" fill="white"/>
<path d="M296.218 199.407C297.426 199.407 298.406 198.427 298.406 197.219C298.406 196.011 297.426 195.031 296.218 195.031C295.01 195.031 294.03 196.011 294.03 197.219C294.03 198.427 295.01 199.407 296.218 199.407Z" fill="white"/>
<path d="M317.221 199.407C318.429 199.407 319.409 198.427 319.409 197.219C319.409 196.011 318.429 195.031 317.221 195.031C316.013 195.031 315.033 196.011 315.033 197.219C315.033 198.427 316.013 199.407 317.221 199.407Z" fill="white"/>
<path d="M338.223 199.407C339.431 199.407 340.411 198.427 340.411 197.219C340.411 196.011 339.431 195.031 338.223 195.031C337.015 195.031 336.035 196.011 336.035 197.219C336.035 198.427 337.015 199.407 338.223 199.407Z" fill="white"/>
<path d="M359.225 199.407C360.433 199.407 361.413 198.427 361.413 197.219C361.413 196.011 360.433 195.031 359.225 195.031C358.017 195.031 357.037 196.011 357.037 197.219C357.037 198.427 358.017 199.407 359.225 199.407Z" fill="white"/>
<path d="M380.228 199.407C381.436 199.407 382.415 198.427 382.415 197.219C382.415 196.011 381.436 195.031 380.228 195.031C379.02 195.031 378.04 196.011 378.04 197.219C378.04 198.427 379.02 199.407 380.228 199.407Z" fill="white"/>
<path d="M401.229 199.407C402.437 199.407 403.416 198.427 403.416 197.219C403.416 196.011 402.437 195.031 401.229 195.031C400.02 195.031 399.041 196.011 399.041 197.219C399.041 198.427 400.02 199.407 401.229 199.407Z" fill="white"/>
<path d="M2.18773 223.764C3.39598 223.764 4.37546 222.784 4.37546 221.576C4.37546 220.368 3.39598 219.388 2.18773 219.388C0.97948 219.388 0 220.368 0 221.576C0 222.784 0.97948 223.764 2.18773 223.764Z" fill="white"/>
<path d="M23.1907 223.764C24.3989 223.764 25.3784 222.784 25.3784 221.576C25.3784 220.368 24.3989 219.388 23.1907 219.388C21.9824 219.388 21.0029 220.368 21.0029 221.576C21.0029 222.784 21.9824 223.764 23.1907 223.764Z" fill="white"/>
<path d="M44.1916 223.764C45.3999 223.764 46.3794 222.784 46.3794 221.576C46.3794 220.368 45.3999 219.388 44.1916 219.388C42.9834 219.388 42.0039 220.368 42.0039 221.576C42.0039 222.784 42.9834 223.764 44.1916 223.764Z" fill="white"/>
<path d="M65.1946 223.764C66.4028 223.764 67.3823 222.784 67.3823 221.576C67.3823 220.368 66.4028 219.388 65.1946 219.388C63.9863 219.388 63.0068 220.368 63.0068 221.576C63.0068 222.784 63.9863 223.764 65.1946 223.764Z" fill="white"/>
<path d="M86.1965 223.764C87.4048 223.764 88.3842 222.784 88.3842 221.576C88.3842 220.368 87.4048 219.388 86.1965 219.388C84.9883 219.388 84.0088 220.368 84.0088 221.576C84.0088 222.784 84.9883 223.764 86.1965 223.764Z" fill="white"/>
<path d="M107.199 223.764C108.408 223.764 109.387 222.784 109.387 221.576C109.387 220.368 108.408 219.388 107.199 219.388C105.991 219.388 105.012 220.368 105.012 221.576C105.012 222.784 105.991 223.764 107.199 223.764Z" fill="white"/>
<path d="M128.201 223.764C129.41 223.764 130.389 222.784 130.389 221.576C130.389 220.368 129.41 219.388 128.201 219.388C126.993 219.388 126.014 220.368 126.014 221.576C126.014 222.784 126.993 223.764 128.201 223.764Z" fill="white"/>
<path d="M149.202 223.764C150.411 223.764 151.39 222.784 151.39 221.576C151.39 220.368 150.411 219.388 149.202 219.388C147.994 219.388 147.015 220.368 147.015 221.576C147.015 222.784 147.994 223.764 149.202 223.764Z" fill="white"/>
<path d="M170.205 223.764C171.414 223.764 172.393 222.784 172.393 221.576C172.393 220.368 171.414 219.388 170.205 219.388C168.997 219.388 168.018 220.368 168.018 221.576C168.018 222.784 168.997 223.764 170.205 223.764Z" fill="white"/>
<path d="M191.206 223.764C192.415 223.764 193.394 222.784 193.394 221.576C193.394 220.368 192.415 219.388 191.206 219.388C189.998 219.388 189.019 220.368 189.019 221.576C189.019 222.784 189.998 223.764 191.206 223.764Z" fill="white"/>
<path d="M212.209 223.764C213.417 223.764 214.397 222.784 214.397 221.576C214.397 220.368 213.417 219.388 212.209 219.388C211.001 219.388 210.021 220.368 210.021 221.576C210.021 222.784 211.001 223.764 212.209 223.764Z" fill="white"/>
<path d="M233.212 223.764C234.42 223.764 235.4 222.784 235.4 221.576C235.4 220.368 234.42 219.388 233.212 219.388C232.004 219.388 231.024 220.368 231.024 221.576C231.024 222.784 232.004 223.764 233.212 223.764Z" fill="white"/>
<path d="M254.214 223.764C255.422 223.764 256.402 222.784 256.402 221.576C256.402 220.368 255.422 219.388 254.214 219.388C253.006 219.388 252.026 220.368 252.026 221.576C252.026 222.784 253.006 223.764 254.214 223.764Z" fill="white"/>
<path d="M275.217 223.764C276.425 223.764 277.405 222.784 277.405 221.576C277.405 220.368 276.425 219.388 275.217 219.388C274.009 219.388 273.029 220.368 273.029 221.576C273.029 222.784 274.009 223.764 275.217 223.764Z" fill="white"/>
<path d="M296.218 223.764C297.426 223.764 298.406 222.784 298.406 221.576C298.406 220.368 297.426 219.388 296.218 219.388C295.01 219.388 294.03 220.368 294.03 221.576C294.03 222.784 295.01 223.764 296.218 223.764Z" fill="white"/>
<path d="M317.221 223.764C318.429 223.764 319.409 222.784 319.409 221.576C319.409 220.368 318.429 219.388 317.221 219.388C316.013 219.388 315.033 220.368 315.033 221.576C315.033 222.784 316.013 223.764 317.221 223.764Z" fill="white"/>
<path d="M338.223 223.764C339.431 223.764 340.411 222.784 340.411 221.576C340.411 220.368 339.431 219.388 338.223 219.388C337.015 219.388 336.035 220.368 336.035 221.576C336.035 222.784 337.015 223.764 338.223 223.764Z" fill="white"/>
<path d="M359.225 223.764C360.433 223.764 361.413 222.784 361.413 221.576C361.413 220.368 360.433 219.388 359.225 219.388C358.017 219.388 357.037 220.368 357.037 221.576C357.037 222.784 358.017 223.764 359.225 223.764Z" fill="white"/>
<path d="M380.228 223.764C381.436 223.764 382.415 222.784 382.415 221.576C382.415 220.368 381.436 219.388 380.228 219.388C379.02 219.388 378.04 220.368 378.04 221.576C378.04 222.784 379.02 223.764 380.228 223.764Z" fill="white"/>
<path d="M401.229 223.764C402.437 223.764 403.416 222.784 403.416 221.576C403.416 220.368 402.437 219.388 401.229 219.388C400.02 219.388 399.041 220.368 399.041 221.576C399.041 222.784 400.02 223.764 401.229 223.764Z" fill="white"/>
</svg>
